<?xml version="1.0" encoding="UTF-8" standalone="no"?>
<!-- Created with Inkscape (http://www.inkscape.org/) -->

<svg
   width="189.49013mm"
   height="192.09235mm"
   viewBox="0 0 189.49013 192.09235"
   version="1.1"
   id="svg231600"
   xmlns="http://www.w3.org/2000/svg"
   xmlns:svg="http://www.w3.org/2000/svg">
  <defs
     id="defs231597" />
  <g
     id="layer1"
     transform="translate(-10.337554,-52.453814)">
    <path
       d="m 199.8277,191.35785 c 0,29.37537 -42.4186,53.18832 -94.74455,53.18832 -52.326997,0 -94.745596,-23.81295 -94.745596,-53.18832 0,-29.3754 42.418599,-53.18941 94.745596,-53.18941 52.32595,0 94.74455,23.81401 94.74455,53.18941"
       style="fill:#dfeef6;fill-opacity:1;fill-rule:nonzero;stroke:none;stroke-width:0.106336"
       id="path226204" />
    <path
       d="m 137.85493,137.42835 v 13.85668 l -6.18984,-6.02501 z"
       style="fill:#b856b2;fill-opacity:1;fill-rule:nonzero;stroke:none;stroke-width:0.106336"
       id="path226206" />
    <path
       d="m 107.80855,189.48313 c -7.858224,6.13456 -22.879299,7.60838 -33.550142,3.29112 -10.670845,-4.31621 -12.950693,-12.78696 -5.093507,-18.92148 7.859313,-6.13456 22.879303,-7.60838 33.550159,-3.29217 10.67083,4.31726 12.95175,12.78906 5.09349,18.92253 z m 14.68717,-34.86128 c -25.821619,-10.44434 -62.167364,-6.8789 -81.182412,7.96459 -19.015051,14.84347 -13.497262,35.34297 12.325434,45.78734 25.820572,10.44539 62.166298,6.87889 81.181338,-7.96352 19.01399,-14.84349 13.49727,-35.34405 -12.32436,-45.78841"
       style="fill:#b856b2;fill-opacity:1;fill-rule:nonzero;stroke:none;stroke-width:0.106336"
       id="path226208" />
    <path
       d="m 41.0262,153.89876 -3.914237,3.05612 -6.636448,5.17964 -3.914238,3.05609 8.400566,7.47759 7.117086,-5.55504 7.116023,-5.55605 7.116022,-5.55501 -15.284774,-2.10334"
       style="fill:#b856b2;fill-opacity:1;fill-rule:nonzero;stroke:none;stroke-width:0.106336"
       id="path226210" />
    <path
       d="m 149.57212,197.80501 -3.9153,3.05609 -6.63538,5.18073 -3.9153,3.05609 -15.2837,-2.1044 7.11603,-5.555 7.11708,-5.55501 7.11494,-5.555 8.40163,7.4765"
       style="fill:#b856b2;fill-opacity:1;fill-rule:nonzero;stroke:none;stroke-width:0.106336"
       id="path226212" />
    <path
       d="m 137.85493,154.27201 -5.31682,-2.15013 -9.01094,-3.6452 -5.31678,-2.15013 -13.39412,4.91701 9.66277,3.90891 9.66382,3.90892 9.66386,3.90997 4.04821,-8.69935"
       style="fill:#b856b2;fill-opacity:1;fill-rule:nonzero;stroke:none;stroke-width:0.106336"
       id="path226214" />
    <path
       d="m 57.923031,216.67012 -5.316813,-2.15118 -9.010934,-3.6452 -5.316813,-2.15013 4.048221,-8.6983 9.66384,3.90892 9.663837,3.90892 9.663841,3.90891 -13.395179,4.91806"
       style="fill:#b856b2;fill-opacity:1;fill-rule:nonzero;stroke:none;stroke-width:0.106336"
       id="path226216" />
    <path
       d="m 90.010003,142.73027 -6.529053,0.6412 -11.06216,1.08465 -6.529047,0.64119 -3.529299,8.76425 11.864998,-1.16438 11.865,-1.1644 11.864989,-1.16333 -7.945428,-7.63918"
       style="fill:#b856b2;fill-opacity:1;fill-rule:nonzero;stroke:none;stroke-width:0.106336"
       id="path226218" />
    <path
       d="m 110.24365,217.89831 -6.52903,0.64119 -11.063225,1.08465 -6.529053,0.6412 -7.944379,-7.63813 11.864986,-1.16437 11.865011,-1.16438 11.86499,-1.16332 -3.5293,8.76316"
       style="fill:#b856b2;fill-opacity:1;fill-rule:nonzero;stroke:none;stroke-width:0.106336"
       id="path226220" />
    <path
       d="m 156.53397,181.76206 v -16.84367 l -19.07355,1.43024 1.80135,6.69279 1.80132,6.69174 1.80135,6.69174 13.66953,-4.66284"
       style="fill:#b856b2;fill-opacity:1;fill-rule:nonzero;stroke:none;stroke-width:0.106336"
       id="path226222" />
    <path
       d="m 23.260601,194.83717 -0.991055,-3.68242 -1.680113,-6.23876 -0.98999,-3.68242 2.670103,-6.92248 10.99836,2.25963 1.802399,6.6928 1.801337,6.69173 1.800274,6.69174 -15.411315,-1.80982"
       style="fill:#b856b2;fill-opacity:1;fill-rule:nonzero;stroke:none;stroke-width:0.106336"
       id="path226224" />
    <path
       d="m 26.561277,148.34695 v 16.0419 l 6.502465,-1.34092 3.229431,-10.35075 -9.731896,-4.35023"
       style="fill:#b856b2;fill-opacity:1;fill-rule:nonzero;stroke:none;stroke-width:0.106336"
       id="path226226" />
    <path
       d="m 145.53772,168.66888 v 16.84472 l 10.99625,-3.75154 v -16.84367 l -10.99625,3.75049"
       style="fill:#a941a6;fill-opacity:1;fill-rule:nonzero;stroke:none;stroke-width:0.106336"
       id="path226228" />
    <path
       d="m 107.80855,172.63841 c -7.858224,6.13453 -22.879299,7.60835 -33.550142,3.29218 -10.670845,-4.31621 -12.950693,-12.78802 -5.093507,-18.92254 7.859313,-6.13455 22.879303,-7.60837 33.550159,-3.29217 10.67083,4.31723 12.95175,12.78904 5.09349,18.92253 z m 14.68717,-34.86128 c -25.821619,-10.44434 -62.167364,-6.8789 -81.182412,7.9646 -19.015051,14.84346 -13.497262,35.34296 12.325434,45.78838 25.820572,10.44434 62.166298,6.87781 81.181338,-7.9646 19.01399,-14.84346 13.49727,-35.34405 -12.32436,-45.78838"
       style="fill:#db8dcc;fill-opacity:1;fill-rule:nonzero;stroke:none;stroke-width:0.106336"
       id="path226230" />
    <path
       d="m 41.0262,137.05404 -3.914237,3.05609 -6.636448,5.17967 -3.914238,3.05715 8.400566,7.4765 7.117086,-5.555 7.116023,-5.55501 7.116022,-5.555 -15.284774,-2.1044"
       style="fill:#db8dcc;fill-opacity:1;fill-rule:nonzero;stroke:none;stroke-width:0.106336"
       id="path226232" />
    <path
       d="m 149.57212,180.96029 -3.9153,3.05715 -6.63538,5.17964 -3.9153,3.05612 -15.2837,-2.1044 7.11603,-5.555 7.11708,-5.555 7.11494,-5.55501 8.40163,7.4765"
       style="fill:#db8dcc;fill-opacity:1;fill-rule:nonzero;stroke:none;stroke-width:0.106336"
       id="path226234" />
    <path
       d="m 137.85493,137.42835 -5.31682,-2.15119 -9.01094,-3.6452 -5.31678,-2.15012 -13.39412,4.91697 9.66277,3.90895 9.66382,3.90997 9.66386,3.90892 4.04821,-8.6983"
       style="fill:#db8dcc;fill-opacity:1;fill-rule:nonzero;stroke:none;stroke-width:0.106336"
       id="path226236" />
    <path
       d="m 57.923031,199.82541 -5.316813,-2.15119 -9.010934,-3.64414 -5.316813,-2.15119 4.048221,-8.6983 9.66384,3.90892 9.663837,3.90997 9.663841,3.90787 -13.395179,4.91806"
       style="fill:#db8dcc;fill-opacity:1;fill-rule:nonzero;stroke:none;stroke-width:0.106336"
       id="path226238" />
    <path
       d="m 90.010003,125.88556 -6.529053,0.64119 -11.06216,1.0857 -6.529047,0.64014 -3.529299,8.76422 11.864998,-1.16438 11.865,-1.16437 11.864989,-1.16332 -7.945428,-7.63918"
       style="fill:#db8dcc;fill-opacity:1;fill-rule:nonzero;stroke:none;stroke-width:0.106336"
       id="path226240" />
    <path
       d="m 110.24365,201.05465 -6.52903,0.64014 -11.063225,1.0857 -6.529053,0.64014 -7.944379,-7.63813 11.864986,-1.1644 11.865011,-1.16329 11.86499,-1.16441 -3.5293,8.76425"
       style="fill:#db8dcc;fill-opacity:1;fill-rule:nonzero;stroke:none;stroke-width:0.106336"
       id="path226242" />
    <path
       d="m 156.53397,164.91839 -0.99,-3.68242 -1.68012,-6.23981 -0.99106,-3.68243 -15.41237,-1.80877 1.80135,6.69174 1.80132,6.69174 1.80135,6.69174 13.66953,-4.66179"
       style="fill:#db8dcc;fill-opacity:1;fill-rule:nonzero;stroke:none;stroke-width:0.106336"
       id="path226244" />
    <path
       d="m 23.260601,177.99351 -0.991055,-3.68242 -1.680113,-6.23982 -0.98999,-3.68242 13.668463,-4.66284 1.802399,6.69279 1.801337,6.69174 1.800274,6.69174 -15.411315,-1.80877"
       style="fill:#db8dcc;fill-opacity:1;fill-rule:nonzero;stroke:none;stroke-width:0.106336"
       id="path226246" />
    <path
       d="m 86.122342,203.42063 v 16.84472 l 24.121308,-2.36704 v -16.84366 l -24.121308,2.36598"
       style="fill:#c86dbd;fill-opacity:1;fill-rule:nonzero;stroke:none;stroke-width:0.106336"
       id="path226248" />
    <path
       d="m 135.10614,192.2532 v 16.84472 l 14.46598,-11.29291 v -16.84472 l -14.46598,11.29291"
       style="fill:#c86dbd;fill-opacity:1;fill-rule:nonzero;stroke:none;stroke-width:0.106336"
       id="path226250" />
    <path
       d="m 57.923031,199.82541 v 16.84471 l -19.64456,-7.94651 v -16.84472 l 19.64456,7.94652"
       style="fill:#c86dbd;fill-opacity:1;fill-rule:nonzero;stroke:none;stroke-width:0.106336"
       id="path226252" />
    <path
       d="m 23.260601,177.99351 v 16.84366 l -3.661158,-13.6036 v -16.84472 l 3.661158,13.60466"
       style="fill:#c86dbd;fill-opacity:1;fill-rule:nonzero;stroke:none;stroke-width:0.106336"
       id="path226254" />
    <path
       d="m 68.692769,212.71548 v -16.84366 l -10.769738,3.95359 v 16.84471 l 10.769738,-3.95464"
       style="fill:#a941a6;fill-opacity:1;fill-rule:nonzero;stroke:none;stroke-width:0.106336"
       id="path226256" />
    <path
       d="m 35.658344,179.44925 v 16.84366 l -12.397743,-1.45574 v -16.84366 l 12.397743,1.45574"
       style="fill:#a941a6;fill-opacity:1;fill-rule:nonzero;stroke:none;stroke-width:0.106336"
       id="path226258" />
    <path
       d="m 79.732599,197.27652 v 16.84472 l 6.389743,6.14411 v -16.84472 l -6.389743,-6.14411"
       style="fill:#a941a6;fill-opacity:1;fill-rule:nonzero;stroke:none;stroke-width:0.106336"
       id="path226260" />
    <path
       d="m 110.24365,201.05465 2.83919,-7.0501 v 16.84471 l -2.83919,7.04905 v -16.84366"
       style="fill:#a941a6;fill-opacity:1;fill-rule:nonzero;stroke:none;stroke-width:0.106336"
       id="path226262" />
    <path
       d="m 122.81686,190.56139 v 16.84472 l 12.28928,1.69181 V 192.2532 l -12.28928,-1.69181"
       style="fill:#a941a6;fill-opacity:1;fill-rule:nonzero;stroke:none;stroke-width:0.106336"
       id="path226264" />
    <path
       d="m 143.80127,177.42035 c -1.67267,3.84725 -3.1146,9.33633 -3.1146,9.33633 0,0 -5.35721,5.36679 -8.38036,7.18089 -3.0242,1.8141 -4.73196,3.98123 -5.51461,5.79424 -0.78476,1.8141 2.46488,1.90875 4.24175,0.97937 1.77582,-0.92831 2.82644,-3.57503 3.24645,-3.32196 0.41792,0.252 0.35942,1.4111 0.95597,2.34259 0.5955,0.93258 0.67736,-2.54569 1.07717,-4.14496 0.4009,-1.59825 5.50611,-2.59995 7.42442,-3.92489 1.91936,-1.326 4.9542,-8.71958 4.94781,-11.00581 -0.006,-2.28516 -4.884,-3.2358 -4.884,-3.2358"
       style="fill:#fabeaf;fill-opacity:1;fill-rule:nonzero;stroke:none;stroke-width:0.106336"
       id="path226266" />
    <path
       d="m 177.16746,206.24173 c 0.26374,-0.0871 2.10545,-1.57802 2.89446,-3.42085 0.79007,-1.84279 3.33471,-3.22625 4.56289,-1.39406 1.22819,1.83219 1.95445,2.62225 2.72007,3.76218 1.5036,2.2405 2.34259,3.4421 0.61358,5.61562 -1.72904,2.17352 -2.63184,2.15969 -3.50911,1.54613 -0.87726,-0.61463 -0.61674,-2.68711 -0.93788,-2.86257 -0.32008,-0.17543 -1.25478,-1.3154 -1.95658,-0.96553 -0.7029,0.35197 -4.38743,-2.28092 -4.38743,-2.28092"
       style="fill:#fabeaf;fill-opacity:1;fill-rule:nonzero;stroke:none;stroke-width:0.106336"
       id="path226268" />
    <path
       d="m 178.13298,204.83383 c -0.50404,-0.23722 -5.77724,3.33576 -8.94182,5.70602 -3.16563,2.37023 -7.08519,8.56006 -6.2664,10.37841 0.81985,1.81835 5.48589,4.37999 9.99561,-0.23511 4.5108,-4.61497 9.33421,-11.18123 9.33421,-11.18123 0,0 -0.78795,-3.09335 -4.1216,-4.66818"
       style="fill:#c86dbd;fill-opacity:1;fill-rule:nonzero;stroke:none;stroke-width:0.106336"
       id="path226270" />
    <path
       d="m 164.18804,199.13954 c 0.26254,-0.0883 2.1044,-1.57911 2.89447,-3.4219 0.78901,-1.84174 3.33364,-3.22625 4.56183,-1.39407 1.22819,1.83322 1.95448,2.62331 2.7201,3.76324 1.50357,2.23944 2.34256,3.44102 0.61461,5.61454 -1.72904,2.17352 -2.6329,2.16077 -3.51017,1.54613 -0.87727,-0.61461 -0.61674,-2.68606 -0.93788,-2.86149 -0.32006,-0.17664 -1.25478,-1.31645 -1.95659,-0.96556 -0.70289,0.35092 -4.38637,-2.28089 -4.38637,-2.28089"
       style="fill:#fabeaf;fill-opacity:1;fill-rule:nonzero;stroke:none;stroke-width:0.106336"
       id="path226272" />
    <path
       d="m 166.33817,199.46065 c -0.41365,-0.37322 -6.49398,1.52169 -10.2104,2.87536 -3.7154,1.35364 -9.25766,6.14516 -8.99819,8.12303 0.15945,1.22816 -3.5325,3.06673 -1.23988,4.12902 3.57077,1.65567 8.73447,-0.28395 10.87501,-1.46318 5.65176,-3.11352 12.16912,-8.00394 12.16912,-8.00394 0,0 0.14047,-3.18902 -2.59566,-5.66029"
       style="fill:#a941a6;fill-opacity:1;fill-rule:nonzero;stroke:none;stroke-width:0.106336"
       id="path226274" />
    <path
       d="m 173.59137,175.33723 c -3.73029,-1.68437 -5.58373,-7.38294 -6.01546,-11.04833 -0.43704,-3.71116 0.16579,-7.72108 -1.26538,-11.26527 -1.12185,-2.77752 -3.27837,-4.12372 -6.26959,-3.98762 -1.46744,0.066 -2.99868,0.49235 -3.98548,1.42065 -0.77627,0.5721 -1.21436,1.50146 -1.05593,2.48826 l -0.003,0.11394 0.0383,0.0362 c 0.0211,0.0956 0.032,0.19141 0.066,0.28696 0.1064,0.31053 0.32008,0.62314 0.58805,0.90069 l 0.11485,0.11062 c 0.5189,0.48596 1.21221,0.80496 1.84704,0.66884 1.1091,0.1905 2.30856,0.27339 2.87958,0.81348 1.36323,1.28773 0.93897,4.2694 1.16866,5.97929 0.22546,1.68329 0.37428,4.62243 0.75178,6.27915 0.97936,4.30342 5.38063,8.84612 11.14193,7.20323"
       style="fill:#602358;fill-opacity:1;fill-rule:nonzero;stroke:none;stroke-width:0.106336"
       id="path226276" />
    <path
       d="m 152.62291,152.82478 c 0,0 1.6227,-2.21075 3.79622,-0.75073 2.87957,1.93424 2.03845,3.91422 1.29622,4.43635 -0.74434,0.52424 -5.09244,-3.68562 -5.09244,-3.68562"
       style="fill:#c86dbd;fill-opacity:1;fill-rule:nonzero;stroke:none;stroke-width:0.106336"
       id="path226278" />
    <path
       d="m 145.8897,214.58806 c 2.06078,0.95172 4.29172,0.78156 6.73321,-0.53274 1.55677,-0.83899 1.7971,-2.07993 2.98698,-3.49633 0.0968,-1.90344 2.17885,-6.42272 2.17885,-6.42272 0,0 -0.64227,-8.18789 0.95169,-10.75061 -1.48232,-0.95594 -3.60372,-1.96189 -4.11201,-2.39468 -6.47589,5.4678 -9.95308,12.18293 -10.66342,19.1118 -0.17121,1.66206 0.11696,3.65159 1.9247,4.48528"
       style="fill:#a941a6;fill-opacity:1;fill-rule:nonzero;stroke:none;stroke-width:0.106336"
       id="path226280" />
    <path
       d="m 169.15394,219.68369 c 0.19351,-0.13715 0.369,-0.2957 0.55721,-0.43915 2.90511,-5.74644 2.85619,-11.55663 1.56527,-18.00699 -0.38175,-1.9013 -1.17076,-6.34084 -3.1316,-7.38293 -0.78901,-0.41895 -10.02963,-0.0799 -10.96007,-0.36687 l -0.0564,-0.0151 c -0.83049,2.90086 -1.8311,6.66196 -1.92361,8.25701 -0.23722,4.10563 3.05076,5.10094 3.05076,5.10094 0,0 0.13836,2.15863 0.56786,4.01634 0.63163,2.99337 2.01825,8.55582 4.83296,11.0175 2.40852,0.9198 3.07632,-0.46471 5.49759,-2.17991"
       style="fill:#c86dbd;fill-opacity:1;fill-rule:nonzero;stroke:none;stroke-width:0.106336"
       id="path226282" />
    <path
       d="m 148.90009,167.48536 c 2.46699,-3.12843 3.90359,-2.73604 6.89165,-1.02508 3.65795,2.09587 7.66365,4.47674 9.26612,5.80913 2.71796,2.25858 3.24328,5.85275 3.70371,11.7087 0.0711,0.88791 0.60719,3.91316 0.92194,4.81171 1.12504,3.19858 0.57633,3.72391 -0.22336,4.47039 0.44024,0.43173 0.86986,2.30322 -0.0521,2.84449 -4.23539,2.48402 -13.64614,2.92636 -16.91917,-3.09332 -0.20407,-0.37326 0.32433,-1.67481 0.58271,-2.01084 -0.68056,-0.38492 -1.16648,-1.33131 -1.16648,-2.21072 -1.25586,-0.67842 -2.32879,-1.70456 -2.61376,-3.47932 -2.5159,-0.56677 -5.2243,-1.97892 -4.40765,-5.01163 0.39878,-1.48021 1.64292,-4.85213 2.11399,-6.5567 0.93574,-3.37723 1.19626,-5.36359 1.90235,-6.25681"
       style="fill:#ffffff;fill-opacity:1;fill-rule:nonzero;stroke:none;stroke-width:0.106336"
       id="path226284" />
    <path
       d="m 150.80776,169.12292 c 0.68906,-0.11364 2.48721,-1.03145 1.94914,-4.36935 -0.14981,-0.93469 4.0514,-3.44635 4.04929,-3.3145 -0.0437,3.02526 0.43064,6.48014 1.81621,8.04966 -1.99806,2.08846 -4.28109,7.3776 -7.70086,6.6524 -1.87791,-0.3977 -1.47276,-3.16777 -0.11393,-7.01821"
       style="fill:#f9aa9a;fill-opacity:1;fill-rule:nonzero;stroke:none;stroke-width:0.106336"
       id="path226286" />
    <path
       d="m 149.20845,168.08297 c 0,0 -0.60291,3.12946 -0.99636,4.2662 -0.39345,1.13779 -1.21435,3.7292 -1.21435,3.7292 0,0 1.11015,-0.58591 1.7237,-0.27972 0.6125,0.30519 1.09951,1.11974 1.6248,1.25053 0.52424,0.13081 1.208,0 1.208,0 l 0.36792,-1.44299 c 0,0 -1.09526,-0.30625 -1.13888,-2.14374 -0.0446,-1.83643 0.17453,-4.32895 0.17453,-4.32895 l -1.74924,-1.05059"
       style="fill:#c1dae8;fill-opacity:1;fill-rule:nonzero;stroke:none;stroke-width:0.106336"
       id="path226288" />
    <path
       d="m 157.27195,166.79736 c -0.0241,0.0543 -0.92939,2.18307 -1.81199,3.79513 -0.93469,1.70776 -2.83066,3.40382 -3.84619,4.27048 -1.48657,1.26858 -0.9368,3.28047 -0.9368,3.28047 0,0 0.54018,-1.2973 1.24519,-1.0942 0.705,0.20316 1.42384,0.83898 2.25538,1.55993 0.61356,-0.98786 2.08313,-1.98633 3.09441,-3.70048 0.98253,-1.66736 2.53396,-4.55119 1.96083,-6.55989 -0.57316,-2.0087 -1.96083,-1.55144 -1.96083,-1.55144"
       style="fill:#c1dae8;fill-opacity:1;fill-rule:nonzero;stroke:none;stroke-width:0.106336"
       id="path226290" />
    <path
       d="m 147.26251,157.71836 c 2.67753,-0.6008 4.07693,-0.71245 6.45672,0.25109 1.33878,0.36153 2.59355,0.95808 3.8026,1.74923 0.0913,0.0594 0.16699,0.19141 0.14891,0.30305 -0.61359,3.52825 -1.7971,7.2681 -5.756,8.83443 -3.25708,1.28772 -5.08393,-2.28517 -5.64965,-4.67988 -0.66033,-2.79132 -0.86027,-6.04096 0.99745,-6.4578"
       style="fill:#fabeaf;fill-opacity:1;fill-rule:nonzero;stroke:none;stroke-width:0.106336"
       id="path226292" />
    <path
       d="m 155.85872,154.14442 c -2.55739,-2.06932 -5.78894,-1.81519 -7.54668,-0.38495 -1.86302,1.51529 -3.35598,3.76323 -2.51699,6.18025 0.87516,0.17332 2.11715,-0.60506 2.7084,-1.10907 1.07292,1.19841 2.97208,2.61586 5.29448,2.28836 0.45723,1.47168 1.43554,4.70538 2.77857,4.61604 2.69137,-5.54223 3.39318,-8.26018 -0.71778,-11.59063"
       style="fill:#913886;fill-opacity:1;fill-rule:nonzero;stroke:none;stroke-width:0.106336"
       id="path226294" />
    <path
       d="m 153.30133,162.75126 c 0,0 0.64017,-2.16607 2.05229,-1.05378 1.41215,1.11226 -0.58697,3.30706 -0.58697,3.30706 l -1.46532,-2.25328"
       style="fill:#fabeaf;fill-opacity:1;fill-rule:nonzero;stroke:none;stroke-width:0.106336"
       id="path226296" />
    <path
       d="m 160.01754,186.21224 c -0.0648,0.81135 0.10942,7.54987 0.10942,7.54987 0,0 -3.3517,3.1348 -4.70218,5.1605 -0.63588,0.95277 -1.98211,2.31175 -2.71795,2.82321 -0.82835,0.57421 -1.98423,0.72948 -2.47552,1.0942 -0.92619,0.69015 -2.28833,1.40151 -2.652,1.59825 -0.36262,0.19774 -0.12751,1.00912 0.77412,0.84855 0.90171,-0.15946 1.48657,-0.5338 1.78007,-0.53274 0.29148,0.001 -1.1006,2.45743 -1.85344,3.20071 -0.75287,0.74332 -1.62589,1.54294 -1.94597,2.29051 -0.31795,0.74753 1.35262,1.50996 2.96678,1.0325 1.61205,-0.47637 3.57183,-2.51166 4.15138,-4.10882 0.57952,-1.59717 0.84005,-1.83535 1.54719,-2.53611 0.25742,-0.2541 4.09502,-3.11885 5.91337,-4.39807 1.81726,-1.2803 4.01526,-3.37618 4.26409,-4.55758 0.20316,-0.96128 0.75603,-3.14544 1.24413,-4.7681 0.48912,-1.62378 0.79112,-3.98976 0.79112,-3.98976 l -7.1947,-0.70712"
       style="fill:#fabeaf;fill-opacity:1;fill-rule:nonzero;stroke:none;stroke-width:0.106336"
       id="path226298" />
    <path
       d="m 160.92459,172.91383 c -1.2016,2.46913 -1.03467,12.1319 -1.03467,12.1319 0,0 3.99401,0.66777 7.12667,1.38875 2.05973,-3.78027 2.69776,-8.76744 1.24733,-11.78526 -2.20116,-4.58203 -6.14731,-4.18752 -7.33933,-1.73539"
       style="fill:#c1dae8;fill-opacity:1;fill-rule:nonzero;stroke:none;stroke-width:0.106336"
       id="path226300" />
    <path
       d="m 159.88992,185.04573 c 0,0 1.62059,-0.45088 3.67712,-0.12751 2.05654,0.32325 3.77283,0.89108 3.77283,0.89108 l -0.25109,1.95658 c 0,0 -2.9455,-0.72945 -4.17158,-0.85279 -1.22711,-0.12449 -2.80407,0.17754 -2.80407,0.17754 l -0.22336,-2.04484"
       style="fill:#ffffff;fill-opacity:1;fill-rule:nonzero;stroke:none;stroke-width:0.106336"
       id="path226302" />
    <path
       d="m 146.99774,166.24653 c 0,0 -1.12185,1.41854 -1.73863,2.88172 -0.61674,1.46424 -1.00911,3.55056 -1.19201,4.8787 -0.18387,1.32814 -0.0639,2.20224 -0.0639,2.20224 0,0 1.62378,0.84219 1.88961,0.98572 0.33814,-0.63908 0.74118,-2.27772 1.17713,-3.68562 0.63697,-2.06184 1.43768,-5.20622 1.43768,-5.20622 0,0 -0.93364,-1.09631 -1.50996,-2.05654"
       style="fill:#c1dae8;fill-opacity:1;fill-rule:nonzero;stroke:none;stroke-width:0.106336"
       id="path226304" />
    <path
       d="m 144.00328,176.20919 -0.66138,2.04376 1.89702,0.87516 0.76987,-2.18416 c 0,0 -0.79112,-0.66884 -2.00551,-0.73476"
       style="fill:#ffffff;fill-opacity:1;fill-rule:nonzero;stroke:none;stroke-width:0.106336"
       id="path226306" />
    <path
       d="m 87.265459,125.3262 v 8.16559 l -3.648398,-3.55058 z"
       style="fill:#d82056;fill-opacity:1;fill-rule:nonzero;stroke:none;stroke-width:0.106336"
       id="path226308" />
    <path
       d="m 69.557281,156.00421 c -4.629882,3.61545 -13.482375,4.48317 -19.771101,1.93959 -6.289788,-2.54355 -7.632817,-7.53607 -3.002935,-11.15148 4.632007,-3.61542 13.4845,-4.48419 19.773227,-1.93959 6.288727,2.54358 7.632817,7.53606 3.000809,11.15148 z m 8.655771,-20.54523 c -15.217782,-6.1558 -36.637094,-4.05459 -47.84281,4.69371 -11.206778,8.74722 -7.955014,20.82914 7.262768,26.98495 15.216718,6.15475 36.638158,4.05354 47.843871,-4.69368 11.20572,-8.74831 7.953941,-20.82914 -7.263829,-26.98498"
       style="fill:#e52559;fill-opacity:1;fill-rule:nonzero;stroke:none;stroke-width:0.106336"
       id="path226310" />
    <path
       d="m 30.201169,135.03259 -2.307497,1.80135 -3.911049,3.0529 -2.307497,1.80026 4.951018,4.40766 4.194964,-3.27517 4.193903,-3.27303 4.192839,-3.27409 -9.006681,-1.23988"
       style="fill:#e52559;fill-opacity:1;fill-rule:nonzero;stroke:none;stroke-width:0.106336"
       id="path226312" />
    <path
       d="m 94.170942,160.90847 -2.307503,1.80132 -3.909985,3.05293 -2.308561,1.80026 -9.006681,-1.23988 4.193903,-3.27409 4.193903,-3.27303 4.1939,-3.27411 4.951024,4.4066"
       style="fill:#e52559;fill-opacity:1;fill-rule:nonzero;stroke:none;stroke-width:0.106336"
       id="path226314" />
    <path
       d="m 87.265459,135.25272 -3.133732,-1.26756 -5.310431,-2.14799 -3.133729,-1.26752 -7.893342,2.89872 5.69537,2.30325 5.695371,2.30326 5.694306,2.3043 2.386187,-5.12646"
       style="fill:#e52559;fill-opacity:1;fill-rule:nonzero;stroke:none;stroke-width:0.106336"
       id="path226316" />
    <path
       d="m 40.158495,172.02592 -3.133729,-1.26753 -5.310431,-2.14799 -3.133732,-1.26755 2.385123,-5.12541 5.696435,2.30325 5.694306,2.30326 5.696431,2.3043 -7.894403,2.89767"
       style="fill:#e52559;fill-opacity:1;fill-rule:nonzero;stroke:none;stroke-width:0.106336"
       id="path226318" />
    <path
       d="m 59.068274,128.45144 -3.847246,0.37748 -6.519477,0.63908 -3.84831,0.37751 -2.079936,5.16474 6.992673,-0.68586 6.99267,-0.68587 6.991609,-0.68694 -4.681983,-4.50014"
       style="fill:#e52559;fill-opacity:1;fill-rule:nonzero;stroke:none;stroke-width:0.106336"
       id="path226320" />
    <path
       d="m 70.992821,172.75006 -3.847246,0.37751 -6.520541,0.64014 -3.847245,0.37747 -4.683048,-4.50119 6.993734,-0.68695 6.992673,-0.68586 6.992673,-0.68586 -2.081,5.16474"
       style="fill:#e52559;fill-opacity:1;fill-rule:nonzero;stroke:none;stroke-width:0.106336"
       id="path226322" />
    <path
       d="m 98.273375,151.4541 v -9.92757 l -11.240794,0.84327 1.062299,3.944 1.061238,3.94401 1.061236,3.94403 8.056021,-2.74774"
       style="fill:#e52559;fill-opacity:1;fill-rule:nonzero;stroke:none;stroke-width:0.106336"
       id="path226324" />
    <path
       d="m 19.730238,159.15923 -0.583786,-2.16926 -0.98999,-3.67818 -0.583786,-2.16927 1.573776,-4.0801 6.482257,1.33131 1.061235,3.94403 1.062302,3.94401 1.061235,3.944 -9.083243,-1.06654"
       style="fill:#e52559;fill-opacity:1;fill-rule:nonzero;stroke:none;stroke-width:0.106336"
       id="path226326" />
    <path
       d="m 21.675126,131.76061 v 9.45437 l 3.832361,-0.79115 1.904483,-6.09944 -5.736844,-2.56378"
       style="fill:#ee2566;fill-opacity:1;fill-rule:nonzero;stroke:none;stroke-width:0.106336"
       id="path226328" />
    <path
       d="m 91.792182,143.73728 v 9.92754 l 6.481193,-2.21072 v -9.92757 l -6.481193,2.21075"
       style="fill:#d82056;fill-opacity:1;fill-rule:nonzero;stroke:none;stroke-width:0.106336"
       id="path226330" />
    <path
       d="m 69.557281,146.07667 c -4.629882,3.61545 -13.482375,4.48419 -19.771101,1.94064 -6.289788,-2.54464 -7.632817,-7.53712 -3.002935,-11.15254 4.632007,-3.61545 13.4845,-4.48313 19.773227,-1.93958 6.288727,2.54355 7.632817,7.53606 3.000809,11.15148 z m 8.655771,-20.54523 c -15.217782,-6.15475 -36.637094,-4.05459 -47.84281,4.69368 -11.206778,8.74828 -7.955014,20.82914 7.262768,26.98495 15.216718,6.1558 36.638158,4.05354 47.843871,-4.69368 11.20572,-8.74828 7.953941,-20.82914 -7.263829,-26.98495"
       style="fill:#f03b6e;fill-opacity:1;fill-rule:nonzero;stroke:none;stroke-width:0.106336"
       id="path226332" />
    <path
       d="m 30.201169,125.10505 -2.307497,1.80131 -3.911049,3.05293 -2.307497,1.80132 4.951018,4.40657 4.194964,-3.27408 4.193903,-3.27409 4.192839,-3.27408 -9.006681,-1.23988"
       style="fill:#f03b6e;fill-opacity:1;fill-rule:nonzero;stroke:none;stroke-width:0.106336"
       id="path226334" />
    <path
       d="m 94.170942,150.9809 -2.307503,1.80134 -3.909985,3.0529 -2.308561,1.80135 -9.006681,-1.23988 4.193903,-3.27409 4.193903,-3.27411 4.1939,-3.27409 4.951024,4.40658"
       style="fill:#f03b6e;fill-opacity:1;fill-rule:nonzero;stroke:none;stroke-width:0.106336"
       id="path226336" />
    <path
       d="m 87.265459,125.3262 -3.133732,-1.26858 -5.310431,-2.14693 -3.133729,-1.26858 -7.893342,2.89872 5.69537,2.30325 5.695371,2.30431 5.694306,2.30322 2.386187,-5.12541"
       style="fill:#f03b6e;fill-opacity:1;fill-rule:nonzero;stroke:none;stroke-width:0.106336"
       id="path226338" />
    <path
       d="m 40.158495,162.09835 -3.133729,-1.26753 -5.310431,-2.14799 -3.133732,-1.26752 2.385123,-5.12541 5.696435,2.30325 5.694306,2.30431 5.696431,2.30322 -7.894403,2.89767"
       style="fill:#f03b6e;fill-opacity:1;fill-rule:nonzero;stroke:none;stroke-width:0.106336"
       id="path226340" />
    <path
       d="m 59.068274,118.5239 -3.847246,0.37747 -6.519477,0.63909 -3.84831,0.3775 -2.079936,5.1658 6.992673,-0.68691 6.99267,-0.68587 6.991609,-0.68589 -4.681983,-4.50119"
       style="fill:#f03b6e;fill-opacity:1;fill-rule:nonzero;stroke:none;stroke-width:0.106336"
       id="path226342" />
    <path
       d="m 70.992821,162.82358 -3.847246,0.37747 -6.520541,0.63908 -3.847245,0.37751 -4.683048,-4.50122 6.993734,-0.68586 6.992673,-0.68587 6.992673,-0.68586 -2.081,5.16475"
       style="fill:#f03b6e;fill-opacity:1;fill-rule:nonzero;stroke:none;stroke-width:0.106336"
       id="path226344" />
    <path
       d="m 98.273375,141.52653 -0.583771,-2.16924 -0.988917,-3.67817 -0.584857,-2.16927 -9.083249,-1.06654 1.062299,3.944 1.061238,3.94401 1.061236,3.94403 8.056021,-2.74882"
       style="fill:#f03b6e;fill-opacity:1;fill-rule:nonzero;stroke:none;stroke-width:0.106336"
       id="path226346" />
    <path
       d="m 19.730238,149.23275 -0.583786,-2.17033 -0.98999,-3.67712 -0.583786,-2.17032 8.056033,-2.74774 1.061235,3.94404 1.062302,3.944 1.061235,3.944 -9.083243,-1.06653"
       style="fill:#f03b6e;fill-opacity:1;fill-rule:nonzero;stroke:none;stroke-width:0.106336"
       id="path226348" />
    <path
       d="m 56.777789,164.21764 v 9.92754 l 14.215032,-1.39512 v -9.92648 l -14.215032,1.39406"
       style="fill:#ee2566;fill-opacity:1;fill-rule:nonzero;stroke:none;stroke-width:0.106336"
       id="path226350" />
    <path
       d="m 85.644893,157.63649 v 9.92649 l 8.526049,-6.65451 v -9.92757 l -8.526049,6.65559"
       style="fill:#ee2566;fill-opacity:1;fill-rule:nonzero;stroke:none;stroke-width:0.106336"
       id="path226352" />
    <path
       d="m 40.158495,162.09835 v 9.92757 l -11.577892,-4.68307 v -9.92754 l 11.577892,4.68304"
       style="fill:#ee2566;fill-opacity:1;fill-rule:nonzero;stroke:none;stroke-width:0.106336"
       id="path226354" />
    <path
       d="m 19.730238,149.23275 v 9.92648 l -2.157562,-8.01671 v -9.92754 l 2.157562,8.01777"
       style="fill:#ee2566;fill-opacity:1;fill-rule:nonzero;stroke:none;stroke-width:0.106336"
       id="path226356" />
    <path
       d="m 46.505708,169.69608 v -9.92754 l -6.347213,2.32981 v 9.92757 l 6.347213,-2.32984"
       style="fill:#d82056;fill-opacity:1;fill-rule:nonzero;stroke:none;stroke-width:0.106336"
       id="path226358" />
    <path
       d="m 27.037665,150.08979 v 9.92757 l -7.307427,-0.85813 v -9.92648 l 7.307427,0.85704"
       style="fill:#d82056;fill-opacity:1;fill-rule:nonzero;stroke:none;stroke-width:0.106336"
       id="path226360" />
    <path
       d="m 53.011358,160.59688 v 9.92758 l 3.766431,3.62072 v -9.92754 l -3.766431,-3.62076"
       style="fill:#d82056;fill-opacity:1;fill-rule:nonzero;stroke:none;stroke-width:0.106336"
       id="path226362" />
    <path
       d="m 70.992821,162.82358 1.673732,-4.15455 v 9.92648 l -1.673732,4.15455 v -9.92648"
       style="fill:#d82056;fill-opacity:1;fill-rule:nonzero;stroke:none;stroke-width:0.106336"
       id="path226364" />
    <path
       d="m 78.403393,156.63905 v 9.92757 l 7.2415,0.99636 v -9.92649 l -7.2415,-0.99744"
       style="fill:#d82056;fill-opacity:1;fill-rule:nonzero;stroke:none;stroke-width:0.106336"
       id="path226366" />
    <path
       d="m 123.02741,222.54096 0.56463,0.64225 c 0.21914,-0.20407 0.46682,-0.40087 0.77732,-0.58058 l 8.45269,-4.87978 c 1.91086,-1.1027 4.82767,-1.22394 6.48225,-0.26887 l 13.47704,7.78061 c 0.10098,0.0585 0.17332,0.1275 0.26043,0.1914 l 0.6178,-0.70286 c 0,0 0.68162,1.30475 0.13595,2.68178 l -0.0271,0.0552 c -0.2107,0.5423 -0.68906,1.07612 -1.45363,1.51741 l -8.45158,4.87978 c -1.91086,1.10376 -4.82766,1.22499 -6.48228,0.26917 l -13.47704,-7.78061 c -0.4817,-0.27761 -0.78795,-0.62208 -0.95702,-0.99214 l -0.0799,-0.15312 c -0.54552,-1.37703 0.16066,-2.65945 0.16066,-2.65945"
       style="fill:#602358;fill-opacity:1;fill-rule:nonzero;stroke:none;stroke-width:0.106336"
       id="path226368" />
    <path
       d="m 137.38066,232.80453 -13.47704,-7.78064 c -1.65458,-0.95488 -1.44512,-2.63925 0.46574,-3.74196 l 8.45269,-4.88083 c 1.91086,-1.1027 4.82767,-1.22394 6.48225,-0.26917 l 13.47704,7.78064 c 1.65462,0.95597 1.44513,2.64033 -0.46573,3.74304 l -8.45267,4.88083 c -1.91086,1.10271 -4.82766,1.22286 -6.48228,0.26797"
       style="fill:#913886;fill-opacity:1;fill-rule:nonzero;stroke:none;stroke-width:0.106336"
       id="path226370" />
    <path
       d="m 137.57315,216.93915 -1.08995,-0.6295 c -0.10731,-0.0618 -0.2957,-0.0543 -0.41898,0.0181 l -0.60186,0.34773 c -0.12328,0.0711 -0.13715,0.17965 -0.0301,0.24234 l 1.08995,0.62848 c 0.10641,0.0618 0.2945,0.0542 0.4179,-0.0181 l 0.60294,-0.34772 c 0.12328,-0.0711 0.13715,-0.17965 0.0301,-0.24144"
       style="fill:#a63e9d;fill-opacity:1;fill-rule:nonzero;stroke:none;stroke-width:0.106336"
       id="path226372" />
    <path
       d="m 141.8521,219.40936 -3.26664,-1.88536 c -0.1052,-0.0618 -0.29449,-0.0542 -0.4179,0.0181 l -0.60294,0.34769 c -0.12238,0.0711 -0.13624,0.18086 -0.0301,0.24235 l 3.26453,1.88532 c 0.10731,0.0618 0.2966,0.0531 0.42001,-0.0181 l 0.6008,-0.3477 c 0.12449,-0.0711 0.13715,-0.17965 0.0307,-0.24144"
       style="fill:#a63e9d;fill-opacity:1;fill-rule:nonzero;stroke:none;stroke-width:0.106336"
       id="path226374" />
    <path
       d="m 143.95545,220.62371 -1.08996,-0.62953 c -0.1073,-0.0618 -0.29569,-0.0542 -0.41895,0.0181 l -0.60188,0.34667 c -0.12329,0.0711 -0.13715,0.18085 -0.0308,0.24235 l 1.09101,0.62949 c 0.1064,0.0618 0.29449,0.053 0.41793,-0.0181 l 0.60291,-0.34878 c 0.12328,-0.0702 0.13715,-0.17965 0.0301,-0.24144"
       style="fill:#a63e9d;fill-opacity:1;fill-rule:nonzero;stroke:none;stroke-width:0.106336"
       id="path226376" />
    <path
       d="m 134.3554,218.79686 -1.091,-0.62953 c -0.10641,-0.0618 -0.2957,-0.053 -0.41896,0.0181 l -0.60188,0.34878 c -0.12329,0.0702 -0.13625,0.17965 -0.0301,0.24144 l 1.09101,0.6295 c 0.10641,0.0618 0.2945,0.0531 0.4179,-0.0181 l 0.60291,-0.34664 c 0.12238,-0.0723 0.13504,-0.18085 0.0301,-0.24234"
       style="fill:#a63e9d;fill-opacity:1;fill-rule:nonzero;stroke:none;stroke-width:0.106336"
       id="path226378" />
    <path
       d="m 136.45767,220.01121 -1.08993,-0.62952 c -0.1073,-0.0618 -0.29449,-0.053 -0.41898,0.0181 l -0.60186,0.34667 c -0.12328,0.0723 -0.13714,0.18086 -0.0301,0.24235 l 1.08996,0.6295 c 0.1073,0.0618 0.2957,0.053 0.41895,-0.0181 l 0.60186,-0.34772 c 0.12328,-0.0711 0.13714,-0.17965 0.0301,-0.24145"
       style="fill:#a63e9d;fill-opacity:1;fill-rule:nonzero;stroke:none;stroke-width:0.106336"
       id="path226380" />
    <path
       d="m 138.63333,221.26704 -1.08996,-0.62844 c -0.1073,-0.0627 -0.29449,-0.0542 -0.41898,0.0181 l -0.60186,0.34772 c -0.12328,0.0711 -0.13714,0.17965 -0.0301,0.24144 l 1.08996,0.62953 c 0.1073,0.0618 0.2957,0.053 0.41898,-0.0181 l 0.60185,-0.34773 c 0.12329,-0.0711 0.13715,-0.18085 0.0301,-0.24234"
       style="fill:#a63e9d;fill-opacity:1;fill-rule:nonzero;stroke:none;stroke-width:0.106336"
       id="path226382" />
    <path
       d="m 140.7377,222.4814 -1.09101,-0.62844 c -0.1064,-0.0618 -0.2957,-0.0543 -0.4179,0.0181 l -0.60291,0.34773 c -0.12328,0.0711 -0.13624,0.17965 -0.0301,0.24144 l 1.08995,0.62952 c 0.10731,0.0618 0.2957,0.0543 0.41896,-0.0181 l 0.60185,-0.34773 c 0.12449,-0.0711 0.13715,-0.17964 0.0307,-0.24234"
       style="fill:#a63e9d;fill-opacity:1;fill-rule:nonzero;stroke:none;stroke-width:0.106336"
       id="path226384" />
    <path
       d="m 132.74549,219.72622 -1.08995,-0.6295 c -0.10731,-0.0618 -0.2957,-0.0543 -0.41899,0.0181 l -0.60185,0.34772 c -0.12329,0.0711 -0.13715,0.18086 -0.0308,0.24235 l 1.09101,0.62844 c 0.10641,0.0627 0.2957,0.0543 0.4179,-0.0181 l 0.60294,-0.34772 c 0.12328,-0.0711 0.13715,-0.17965 0.0301,-0.24144"
       style="fill:#a63e9d;fill-opacity:1;fill-rule:nonzero;stroke:none;stroke-width:0.106336"
       id="path226386" />
    <path
       d="m 134.84986,220.9406 -1.09101,-0.62953 c -0.1064,-0.0618 -0.29569,-0.0542 -0.41789,0.0181 l -0.60291,0.34769 c -0.12329,0.0711 -0.13715,0.18086 -0.0301,0.24235 l 1.08996,0.6295 c 0.10731,0.0618 0.2957,0.0531 0.41895,-0.0181 l 0.60186,-0.34772 c 0.12448,-0.0711 0.13624,-0.17965 0.0307,-0.24145"
       style="fill:#a63e9d;fill-opacity:1;fill-rule:nonzero;stroke:none;stroke-width:0.106336"
       id="path226388" />
    <path
       d="m 137.02552,222.19643 -1.09101,-0.62953 c -0.1064,-0.0618 -0.2957,-0.0542 -0.41898,0.0181 l -0.60185,0.34667 c -0.12329,0.0711 -0.13715,0.18085 -0.0301,0.24144 l 1.08996,0.63055 c 0.10731,0.0618 0.2957,0.053 0.41895,-0.0181 l 0.60189,-0.34878 c 0.12237,-0.0702 0.13714,-0.17965 0.0307,-0.24145"
       style="fill:#a63e9d;fill-opacity:1;fill-rule:nonzero;stroke:none;stroke-width:0.106336"
       id="path226390" />
    <path
       d="m 139.12779,223.41078 -1.08996,-0.62952 c -0.10731,-0.0618 -0.2957,-0.0543 -0.41895,0.0181 l -0.60189,0.34667 c -0.12328,0.0711 -0.13624,0.18086 -0.0307,0.24144 l 1.09101,0.63059 c 0.1064,0.0618 0.2957,0.053 0.41789,-0.0181 l 0.60295,-0.34667 c 0.12328,-0.0711 0.13714,-0.18086 0.0301,-0.24235"
       style="fill:#a63e9d;fill-opacity:1;fill-rule:nonzero;stroke:none;stroke-width:0.106336"
       id="path226392" />
    <path
       d="m 130.70487,220.90443 -1.08993,-0.6295 c -0.1073,-0.0618 -0.2966,-0.0543 -0.42003,0.0181 l -0.6008,0.34772 c -0.12329,0.0711 -0.13715,0.17965 -0.0301,0.24235 l 1.0889,0.62847 c 0.10731,0.0618 0.2957,0.0543 0.41896,-0.0181 l 0.60294,-0.34773 c 0.12328,-0.0711 0.13715,-0.17965 0.0301,-0.24144"
       style="fill:#a63e9d;fill-opacity:1;fill-rule:nonzero;stroke:none;stroke-width:0.106336"
       id="path226394" />
    <path
       d="m 132.80822,222.11878 -1.09101,-0.62949 c -0.10641,-0.0618 -0.2945,-0.0531 -0.4179,0.0181 l -0.60294,0.34773 c -0.12328,0.0711 -0.13715,0.18085 -0.0301,0.24234 l 1.08995,0.62844 c 0.10731,0.0627 0.2966,0.0543 0.41898,-0.0181 l 0.60186,-0.34773 c 0.12449,-0.0711 0.13715,-0.17965 0.0308,-0.24144"
       style="fill:#a63e9d;fill-opacity:1;fill-rule:nonzero;stroke:none;stroke-width:0.106336"
       id="path226396" />
    <path
       d="m 134.98385,223.37461 -1.09101,-0.6295 c -0.10641,-0.0618 -0.2945,-0.0531 -0.4179,0.0181 l -0.60291,0.34664 c -0.12328,0.0723 -0.13715,0.18086 -0.0301,0.24235 l 1.08995,0.62949 c 0.10731,0.0618 0.2966,0.053 0.41895,-0.0181 l 0.60186,-0.34664 c 0.12449,-0.0723 0.13715,-0.18086 0.0307,-0.24235"
       style="fill:#a63e9d;fill-opacity:1;fill-rule:nonzero;stroke:none;stroke-width:0.106336"
       id="path226398" />
    <path
       d="m 137.0872,224.589 -1.08996,-0.62845 c -0.10731,-0.0627 -0.2966,-0.0552 -0.41895,0.0181 l -0.60189,0.34667 c -0.12328,0.0723 -0.13715,0.18085 -0.0307,0.24234 l 1.09101,0.6295 c 0.1064,0.0618 0.29449,0.0531 0.41789,-0.0181 l 0.60294,-0.34878 c 0.12329,-0.0702 0.13715,-0.17965 0.0301,-0.24145"
       style="fill:#a63e9d;fill-opacity:1;fill-rule:nonzero;stroke:none;stroke-width:0.106336"
       id="path226400" />
    <path
       d="m 135.96426,217.86853 -1.09101,-0.63058 c -0.10519,-0.0606 -0.29449,-0.0531 -0.41789,0.0181 l -0.60291,0.34773 c -0.12329,0.0711 -0.13715,0.17965 -0.0301,0.24144 l 1.08996,0.6295 c 0.10731,0.0618 0.2957,0.0542 0.41895,-0.0181 l 0.60186,-0.34772 c 0.12328,-0.0711 0.13715,-0.17965 0.0307,-0.24144"
       style="fill:#a63e9d;fill-opacity:1;fill-rule:nonzero;stroke:none;stroke-width:0.106336"
       id="path226402" />
    <path
       d="m 138.06761,219.08288 -1.08995,-0.63055 c -0.10731,-0.0606 -0.2957,-0.053 -0.41895,0.0181 l -0.60189,0.34772 c -0.12449,0.0711 -0.13715,0.17965 -0.0307,0.24144 l 1.09101,0.62953 c 0.10641,0.0618 0.2945,0.0543 0.41793,-0.0181 l 0.60291,-0.34773 c 0.12238,-0.0711 0.13715,-0.18085 0.0301,-0.24144"
       style="fill:#a63e9d;fill-opacity:1;fill-rule:nonzero;stroke:none;stroke-width:0.106336"
       id="path226404" />
    <path
       d="m 140.24324,220.33871 -1.08995,-0.62949 c -0.10731,-0.0627 -0.2957,-0.0543 -0.41895,0.0181 l -0.60186,0.34773 c -0.12449,0.0711 -0.13715,0.17965 -0.0307,0.24144 l 1.09101,0.62953 c 0.10641,0.0618 0.2945,0.0542 0.4179,-0.0181 l 0.60291,-0.34772 c 0.12328,-0.0711 0.13715,-0.18086 0.0301,-0.24145"
       style="fill:#a63e9d;fill-opacity:1;fill-rule:nonzero;stroke:none;stroke-width:0.106336"
       id="path226406" />
    <path
       d="m 142.3455,221.5531 -1.08992,-0.62953 c -0.1064,-0.0618 -0.29449,-0.0543 -0.41793,0.0181 l -0.60291,0.34769 c -0.12238,0.0711 -0.13715,0.17965 -0.0301,0.24144 l 1.08995,0.6295 c 0.10731,0.0618 0.29661,0.0543 0.42004,-0.0181 l 0.6008,-0.34772 c 0.12328,-0.0711 0.13715,-0.17965 0.0301,-0.24144"
       style="fill:#a63e9d;fill-opacity:1;fill-rule:nonzero;stroke:none;stroke-width:0.106336"
       id="path226408" />
    <path
       d="m 146.09069,221.85721 -1.08996,-0.63059 c -0.10731,-0.0618 -0.2957,-0.053 -0.41898,0.0181 l -0.60186,0.34878 c -0.12448,0.0711 -0.13714,0.17965 -0.0307,0.24144 l 1.09101,0.6295 c 0.1064,0.0618 0.29449,0.0542 0.4179,-0.0181 l 0.60294,-0.34772 c 0.12328,-0.0711 0.13715,-0.18086 0.0301,-0.24144"
       style="fill:#a63e9d;fill-opacity:1;fill-rule:nonzero;stroke:none;stroke-width:0.106336"
       id="path226410" />
    <path
       d="m 142.87294,223.71489 -1.09101,-0.6295 c -0.1064,-0.0618 -0.29449,-0.0542 -0.4179,0.0181 l -2.2118,1.27711 c -0.12449,0.0711 -0.13715,0.17965 -0.0307,0.24144 l 1.09101,0.6295 c 0.1064,0.0618 0.29569,0.0543 0.41789,-0.0181 l 2.2118,-1.27605 c 0.12329,-0.0711 0.13715,-0.17965 0.0308,-0.24144"
       style="fill:#a63e9d;fill-opacity:1;fill-rule:nonzero;stroke:none;stroke-width:0.106336"
       id="path226412" />
    <path
       d="m 139.2224,225.82249 -1.08992,-0.62953 c -0.10731,-0.0618 -0.2957,-0.0542 -0.41898,0.0181 l -0.60186,0.34772 c -0.12449,0.0711 -0.13715,0.17965 -0.0307,0.24144 l 1.09101,0.6295 c 0.1064,0.0618 0.29449,0.0543 0.41789,-0.0181 l 0.60294,-0.34773 c 0.12329,-0.0711 0.13715,-0.17965 0.0302,-0.24144"
       style="fill:#a63e9d;fill-opacity:1;fill-rule:nonzero;stroke:none;stroke-width:0.106336"
       id="path226414" />
    <path
       d="m 144.48074,222.78554 -1.08887,-0.62953 c -0.1073,-0.0618 -0.2957,-0.0531 -0.42003,0.0181 l -0.6008,0.34878 c -0.12329,0.0702 -0.13715,0.17965 -0.0301,0.24145 l 1.08996,0.62844 c 0.1064,0.0627 0.29449,0.0542 0.41895,-0.0181 l 0.6008,-0.34769 c 0.12328,-0.0711 0.13715,-0.17965 0.0301,-0.24144"
       style="fill:#a63e9d;fill-opacity:1;fill-rule:nonzero;stroke:none;stroke-width:0.106336"
       id="path226416" />
    <path
       d="m 148.19295,223.07156 -1.0889,-0.63055 c -0.10731,-0.0618 -0.2957,-0.0531 -0.41895,0.0181 l -0.60186,0.34878 c -0.12328,0.0711 -0.13715,0.17965 -0.0301,0.24144 l 1.08887,0.62953 c 0.10851,0.0618 0.2966,0.0543 0.42004,-0.0181 l 0.60185,-0.34773 c 0.12238,-0.0711 0.13715,-0.18085 0.0301,-0.24144"
       style="fill:#a63e9d;fill-opacity:1;fill-rule:nonzero;stroke:none;stroke-width:0.106336"
       id="path226418" />
    <path
       d="m 152.47298,225.54069 -3.26558,-1.88533 c -0.10731,-0.0618 -0.2957,-0.0531 -0.41898,0.0181 l -0.60186,0.34769 c -0.12449,0.0711 -0.13715,0.17965 -0.0307,0.24144 l 3.26664,1.88536 c 0.10641,0.0618 0.2957,0.0543 0.41793,-0.0181 l 0.60291,-0.34769 c 0.12328,-0.0711 0.13625,-0.17965 0.0301,-0.24235"
       style="fill:#a63e9d;fill-opacity:1;fill-rule:nonzero;stroke:none;stroke-width:0.106336"
       id="path226420" />
    <path
       d="m 144.9752,224.92928 -1.08992,-0.62953 c -0.10641,-0.0618 -0.2957,-0.0543 -0.41898,0.0181 l -0.60186,0.3477 c -0.12238,0.0711 -0.13625,0.18085 -0.0301,0.24144 l 1.08995,0.62953 c 0.1064,0.0618 0.2957,0.0543 0.41895,-0.0181 l 0.60186,-0.34769 c 0.12328,-0.0711 0.13715,-0.17965 0.0301,-0.24144"
       style="fill:#a63e9d;fill-opacity:1;fill-rule:nonzero;stroke:none;stroke-width:0.106336"
       id="path226422" />
    <path
       d="m 147.0796,226.14363 -1.09101,-0.62953 c -0.1064,-0.0618 -0.29449,-0.0543 -0.41789,0.0181 l -0.60294,0.34772 c -0.12329,0.0711 -0.13715,0.18086 -0.0301,0.24144 l 1.08993,0.6295 c 0.10731,0.0618 0.2957,0.0543 0.41898,-0.0181 l 0.60186,-0.34772 c 0.12449,-0.0711 0.13715,-0.17965 0.0307,-0.24144"
       style="fill:#a63e9d;fill-opacity:1;fill-rule:nonzero;stroke:none;stroke-width:0.106336"
       id="path226424" />
    <path
       d="m 149.25523,227.39946 -1.09101,-0.62953 c -0.1064,-0.0618 -0.29449,-0.0543 -0.41789,0.0181 l -0.60291,0.34772 c -0.12329,0.0711 -0.13715,0.17965 -0.0301,0.24144 l 1.08996,0.63055 c 0.10731,0.0618 0.2957,0.0531 0.41895,-0.0181 l 0.60186,-0.34773 c 0.12328,-0.0702 0.13715,-0.17965 0.0307,-0.24144"
       style="fill:#a63e9d;fill-opacity:1;fill-rule:nonzero;stroke:none;stroke-width:0.106336"
       id="path226426" />
    <path
       d="m 143.36634,225.85758 -1.08995,-0.6295 c -0.10731,-0.0618 -0.2957,-0.0531 -0.41895,0.0181 l -0.60186,0.34773 c -0.12328,0.0711 -0.13715,0.17965 -0.0301,0.24144 l 1.08995,0.62953 c 0.10731,0.0618 0.29449,0.0543 0.41895,-0.0181 l 0.60186,-0.34667 c 0.12328,-0.0711 0.13715,-0.18085 0.0301,-0.24234"
       style="fill:#a63e9d;fill-opacity:1;fill-rule:nonzero;stroke:none;stroke-width:0.106336"
       id="path226428" />
    <path
       d="m 145.47075,227.07301 -1.08996,-0.62952 c -0.10731,-0.0627 -0.2966,-0.0543 -0.42004,0.0181 l -0.60185,0.3477 c -0.12329,0.0711 -0.13625,0.17965 -0.0301,0.24144 l 1.08996,0.62953 c 0.1064,0.0618 0.2957,0.0542 0.41895,-0.0181 l 0.60189,-0.34769 c 0.12328,-0.0711 0.13715,-0.18086 0.0307,-0.24145"
       style="fill:#a63e9d;fill-opacity:1;fill-rule:nonzero;stroke:none;stroke-width:0.106336"
       id="path226430" />
    <path
       d="m 147.64532,228.32776 -1.08996,-0.62844 c -0.1064,-0.0618 -0.29569,-0.0543 -0.41895,0.0181 l -0.60188,0.3477 c -0.12329,0.0711 -0.13625,0.17965 -0.0301,0.24144 l 1.08993,0.6295 c 0.1064,0.0618 0.2957,0.0542 0.41898,-0.0181 l 0.60186,-0.34773 c 0.12328,-0.0711 0.13624,-0.17964 0.0301,-0.24234"
       style="fill:#a63e9d;fill-opacity:1;fill-rule:nonzero;stroke:none;stroke-width:0.106336"
       id="path226432" />
    <path
       d="m 141.32575,227.03684 -1.08995,-0.62949 c -0.10641,-0.0618 -0.2957,-0.0543 -0.41896,0.0181 l -0.60294,0.34773 c -0.12328,0.0711 -0.13624,0.17965 -0.0301,0.24144 l 1.08887,0.62949 c 0.10731,0.0618 0.2966,0.0543 0.42004,-0.0181 l 0.6008,-0.34773 c 0.12328,-0.0711 0.13715,-0.17964 0.0307,-0.24144"
       style="fill:#a63e9d;fill-opacity:1;fill-rule:nonzero;stroke:none;stroke-width:0.106336"
       id="path226434" />
    <path
       d="m 143.42907,228.2512 -1.08993,-0.6295 c -0.1073,-0.0627 -0.29569,-0.0543 -0.41898,0.0181 l -0.60185,0.34773 c -0.12449,0.0711 -0.13715,0.17965 -0.0307,0.24144 l 1.09101,0.62953 c 0.1064,0.0618 0.29449,0.0543 0.4179,-0.0181 l 0.60294,-0.34772 c 0.12328,-0.0711 0.13715,-0.18086 0.0301,-0.24144"
       style="fill:#a63e9d;fill-opacity:1;fill-rule:nonzero;stroke:none;stroke-width:0.106336"
       id="path226436" />
    <path
       d="m 145.60473,229.50703 -1.08996,-0.6295 c -0.1073,-0.0618 -0.29569,-0.0543 -0.41895,0.0181 l -0.60188,0.34773 c -0.12449,0.0711 -0.13715,0.17965 -0.0308,0.24144 l 1.09101,0.62953 c 0.1064,0.0618 0.29449,0.0543 0.4179,-0.0181 l 0.60294,-0.34772 c 0.12328,-0.0711 0.13715,-0.17965 0.0301,-0.24144"
       style="fill:#a63e9d;fill-opacity:1;fill-rule:nonzero;stroke:none;stroke-width:0.106336"
       id="path226438" />
    <path
       d="m 137.46681,226.80291 -1.09101,-0.6295 c -0.1064,-0.0618 -0.29449,-0.053 -0.4179,0.0181 l -0.60294,0.34667 c -0.12328,0.0724 -0.13715,0.18086 -0.0301,0.24235 l 1.08995,0.62953 c 0.10731,0.0618 0.2957,0.0542 0.41899,-0.0181 l 0.60185,-0.34772 c 0.12329,-0.0711 0.13715,-0.18086 0.0308,-0.24235"
       style="fill:#a63e9d;fill-opacity:1;fill-rule:nonzero;stroke:none;stroke-width:0.106336"
       id="path226440" />
    <path
       d="m 139.56907,228.01834 -1.08887,-0.63058 c -0.1073,-0.0618 -0.2966,-0.053 -0.42003,0.0181 l -0.6008,0.34664 c -0.12329,0.0723 -0.13715,0.18085 -0.0308,0.24234 l 1.08995,0.62953 c 0.10641,0.0618 0.2957,0.0543 0.41896,-0.0181 l 0.60185,-0.3477 c 0.12329,-0.0711 0.13715,-0.18085 0.0301,-0.24144"
       style="fill:#a63e9d;fill-opacity:1;fill-rule:nonzero;stroke:none;stroke-width:0.106336"
       id="path226442" />
    <path
       d="m 141.67348,229.2327 -1.09101,-0.63058 c -0.10641,-0.0618 -0.2945,-0.0531 -0.4179,0.0181 l -0.60294,0.34881 c -0.12329,0.0702 -0.13715,0.17965 -0.0301,0.24144 l 1.08995,0.6295 c 0.10731,0.0618 0.2957,0.0543 0.41895,-0.0181 l 0.60189,-0.34772 c 0.12449,-0.0711 0.13715,-0.18086 0.0307,-0.24144"
       style="fill:#a63e9d;fill-opacity:1;fill-rule:nonzero;stroke:none;stroke-width:0.106336"
       id="path226444" />
    <path
       d="m 143.84911,230.48747 -1.09101,-0.62952 c -0.10641,-0.0618 -0.2945,-0.0531 -0.4179,0.0181 l -0.60294,0.34773 c -0.12329,0.0711 -0.13715,0.17964 -0.0301,0.24144 l 1.08992,0.62949 c 0.10731,0.0618 0.2957,0.0531 0.41898,-0.0181 l 0.60186,-0.34773 c 0.12328,-0.0711 0.13715,-0.18085 0.0307,-0.24234"
       style="fill:#a63e9d;fill-opacity:1;fill-rule:nonzero;stroke:none;stroke-width:0.106336"
       id="path226446" />
    <path
       d="m 146.58515,223.99989 -1.09101,-0.62953 c -0.10641,-0.0618 -0.2945,-0.0531 -0.4179,0.0181 l -0.60294,0.34772 c -0.12329,0.0723 -0.13625,0.18086 -0.0301,0.24235 l 1.09101,0.62844 c 0.1064,0.0627 0.29449,0.0543 0.41792,-0.0181 l 0.60186,-0.34773 c 0.12449,-0.0711 0.13715,-0.17965 0.0307,-0.24144"
       style="fill:#a63e9d;fill-opacity:1;fill-rule:nonzero;stroke:none;stroke-width:0.106336"
       id="path226448" />
    <path
       d="m 148.68741,225.21424 -1.08996,-0.62949 c -0.1064,-0.0618 -0.29449,-0.0531 -0.41895,0.0181 l -0.6008,0.34667 c -0.12328,0.0723 -0.13715,0.18086 -0.0301,0.24235 l 1.0889,0.62952 c 0.10851,0.0618 0.2957,0.0531 0.42,-0.0181 l 0.60081,-0.34773 c 0.12328,-0.0711 0.13714,-0.17965 0.0301,-0.24144"
       style="fill:#a63e9d;fill-opacity:1;fill-rule:nonzero;stroke:none;stroke-width:0.106336"
       id="path226450" />
    <path
       d="m 150.86304,226.47007 -1.08887,-0.62949 c -0.10731,-0.0606 -0.2957,-0.0543 -0.42004,0.0181 l -0.6008,0.34667 c -0.12328,0.0723 -0.13715,0.18086 -0.0301,0.24235 l 1.0889,0.62952 c 0.10851,0.0618 0.2957,0.0543 0.41895,-0.0181 l 0.60189,-0.34878 c 0.12328,-0.0702 0.13714,-0.17875 0.0301,-0.24144"
       style="fill:#a63e9d;fill-opacity:1;fill-rule:nonzero;stroke:none;stroke-width:0.106336"
       id="path226452" />
    <path
       d="m 114.8863,207.6358 c 0.49234,-0.9347 1.5823,-1.02401 1.72689,-1.03254 h 0.0151 l 0.0151,-0.001 0.001,0.001 c 0.3722,-0.0151 0.82199,0.12961 1.24627,0.37537 l 15.92067,9.10453 c 0.97936,0.56568 1.8396,1.78432 2.29261,3.11032 0.18086,0.53168 3.23156,7.70513 4.12586,10.0775 0.36792,0.97508 0.47637,1.65458 0.40936,2.10012 v 10e-4 l -0.0437,0.1902 c -0.2318,1.07295 -1.59397,1.13887 -1.59397,1.13887 l -0.13082,-0.98466 -0.10731,-0.0573 -14.366,-8.29423 c -1.44938,-0.83688 -2.59142,-2.76368 -3.49847,-4.69902 0,0 -3.37618,-7.20639 -4.43529,-9.46497 l -0.30083,0.28816 c 0,0 -1.62483,-1.19202 -1.27605,-1.85343"
       style="fill:#602358;fill-opacity:1;fill-rule:nonzero;stroke:none;stroke-width:0.106336"
       id="path226454" />
    <path
       d="m 123.32196,224.01583 14.36709,8.2953 c 1.44829,0.83579 2.53825,0.45618 1.46532,-2.38832 -0.89324,-2.37237 -3.94295,-9.54687 -4.1248,-10.07855 -0.45403,-1.32706 -1.31325,-2.54464 -2.29261,-3.11032 l -15.92067,-9.10453 c -0.86663,-0.49977 -1.84279,-0.59761 -2.0342,0.28484 -0.0799,0.36367 0.1052,0.86877 0.2945,1.27178 0.13925,0.2957 4.7479,10.13064 4.7479,10.13064 0.906,1.93533 2.04909,3.86322 3.49741,4.69901"
       style="fill:#913886;fill-opacity:1;fill-rule:nonzero;stroke:none;stroke-width:0.106336"
       id="path226456" />
    <path
       d="m 134.04277,231.56251 2.27027,1.31008 -0.8379,-2.0842 -2.27028,-1.31006 0.83791,2.08418"
       style="fill:#c1dae8;fill-opacity:1;fill-rule:nonzero;stroke:none;stroke-width:0.106336"
       id="path226458" />
    <path
       d="m 133.20486,229.47833 0.36578,-0.21582 2.26923,1.31111 -0.36473,0.21492 -2.27028,-1.31006"
       style="fill:#eef4fb;fill-opacity:1;fill-rule:nonzero;stroke:none;stroke-width:0.106336"
       id="path226460" />
    <path
       d="m 136.31304,232.87259 0.36476,-0.21491 -0.83793,-2.08418 -0.36473,0.21492 0.8379,2.0842"
       style="fill:#91c0cf;fill-opacity:1;fill-rule:nonzero;stroke:none;stroke-width:0.106336"
       id="path226462" />
    <path
       d="m 124.29388,225.90225 2.27133,1.31111 -0.83793,-2.08418 -2.27028,-1.31006 0.83688,2.08313"
       style="fill:#c1dae8;fill-opacity:1;fill-rule:nonzero;stroke:none;stroke-width:0.106336"
       id="path226464" />
    <path
       d="m 123.457,223.81912 0.36473,-0.21491 2.26922,1.31008 -0.36367,0.21492 -2.27028,-1.31006"
       style="fill:#eef4fb;fill-opacity:1;fill-rule:nonzero;stroke:none;stroke-width:0.106336"
       id="path226466" />
    <path
       d="m 126.56521,227.21336 0.36367,-0.21492 -0.83793,-2.08418 -0.36367,0.21492 0.83793,2.08418"
       style="fill:#91c0cf;fill-opacity:1;fill-rule:nonzero;stroke:none;stroke-width:0.106336"
       id="path226468" />
    <path
       d="m 119.97448,111.26111 13.97367,8.06775 c 2.22666,1.28561 4.04926,-0.0913 4.04926,-3.06038 V 97.636251 c 0,-2.968891 -1.8226,-6.449302 -4.04926,-7.734882 l -13.97367,-8.066692 c -2.22561,-1.28561 -4.04821,0.09043 -4.04821,3.059289 v 18.632264 c 0,2.96889 1.8226,6.44927 4.04821,7.73488"
       style="fill:#792871;fill-opacity:1;fill-rule:nonzero;stroke:none;stroke-width:0.106336"
       id="path226470" />
    <path
       d="m 135.49534,115.26892 c 0.082,0.18297 1.06442,4.2354 1.06442,4.2354 l -5.08607,2.96783 -2.28092,-6.07818 6.30257,-1.12505"
       style="fill:#792871;fill-opacity:1;fill-rule:nonzero;stroke:none;stroke-width:0.106336"
       id="path226472" />
    <path
       d="m 117.47132,81.557155 -5.09138,2.9285 2.1278,3.790879 4.33,-2.578666 -1.36642,-4.140713"
       style="fill:#792871;fill-opacity:1;fill-rule:nonzero;stroke:none;stroke-width:0.106336"
       id="path226474" />
    <path
       d="m 114.94052,114.15666 13.97473,8.06772 c 2.2256,1.28561 4.04715,-0.0913 4.04715,-3.06034 v -18.63226 c 0,-2.967841 -1.82155,-6.449277 -4.04715,-7.733832 l -13.97473,-8.067716 c -2.22666,-1.285611 -4.0482,0.09133 -4.0482,3.059289 v 18.632229 c 0,2.96892 1.82154,6.4493 4.0482,7.73491"
       style="fill:#913886;fill-opacity:1;fill-rule:nonzero;stroke:none;stroke-width:0.106336"
       id="path226476" />
    <path
       d="m 125.27535,106.25054 c 0.39451,-1.91297 -0.65289,-4.67879 -2.33725,-6.17814 -1.68437,-1.499318 -3.37088,-1.164374 -3.76538,0.74862 -0.39556,1.91406 0.65078,4.67988 2.3362,6.1792 1.68542,1.49935 3.37087,1.16332 3.76643,-0.74968 z m -4.84894,5.60926 c -4.07693,-3.6282 -6.60879,-10.32313 -5.65282,-14.951944 0.95489,-4.629897 5.03502,-5.441244 9.113,-1.813045 4.07802,3.6282 6.60882,10.322079 5.6539,14.950889 -0.95594,4.62987 -5.03607,5.44122 -9.11408,1.8141"
       style="fill:#ffffff;fill-opacity:1;fill-rule:nonzero;stroke:none;stroke-width:0.106336"
       id="path226478" />
    <path
       d="m 113.22212,97.611805 0.19684,-0.952776 0.33388,-1.615249 0.19563,-0.953831 2.04379,0.826237 -0.35728,1.733258 -0.35837,1.732232 -0.35728,1.732204 -1.69714,-2.502075"
       style="fill:#ffffff;fill-opacity:1;fill-rule:nonzero;stroke:none;stroke-width:0.106336"
       id="path226480" />
    <path
       d="m 130.36462,112.86361 0.19563,-0.95278 0.33494,-1.6163 0.19563,-0.95278 -1.69712,-2.50102 -0.35728,1.73221 -0.35731,1.73223 -0.35834,1.7322 2.04379,0.82624"
       style="fill:#ffffff;fill-opacity:1;fill-rule:nonzero;stroke:none;stroke-width:0.106336"
       id="path226482" />
    <path
       d="m 121.69927,114.58731 -0.83899,-0.74753 -1.42279,-1.26542 -0.84004,-0.74753 -0.29992,-2.77963 1.52699,1.35792 1.52488,1.35789 1.52696,1.35793 -1.17712,1.46637"
       style="fill:#ffffff;fill-opacity:1;fill-rule:nonzero;stroke:none;stroke-width:0.106336"
       id="path226484" />
    <path
       d="m 125.71664,95.126732 -0.84005,-0.74648 -1.42278,-1.26647 -0.84005,-0.747566 -1.17607,1.467461 1.52591,1.356837 1.52593,1.357922 1.52591,1.357922 -0.29871,-2.779626"
       style="fill:#ffffff;fill-opacity:1;fill-rule:nonzero;stroke:none;stroke-width:0.106336"
       id="path226486" />
    <path
       d="m 115.51582,107.18632 -0.45406,-1.20266 -0.76988,-2.03743 -0.45512,-1.20265 1.23244,-1.38132 0.82624,2.18522 0.82624,2.18627 0.8262,2.18521 -2.03206,-0.73264"
       style="fill:#ffffff;fill-opacity:1;fill-rule:nonzero;stroke:none;stroke-width:0.106336"
       id="path226488" />
    <path
       d="m 130.47732,104.20995 -0.45406,-1.2016 -0.77093,-2.03845 -0.45512,-1.20266 -2.03209,-0.731591 0.82623,2.185181 0.8273,2.1863 0.82623,2.18413 1.23244,-1.38131"
       style="fill:#ffffff;fill-opacity:1;fill-rule:nonzero;stroke:none;stroke-width:0.106336"
       id="path226490" />
    <path
       d="m 128.15176,115.48056 -0.73373,0.14558 -1.24202,0.24657 -0.73264,0.14559 -1.65673,-2.54889 1.33239,-0.26585 1.33134,-0.26465 1.33239,-0.26496 0.369,2.80624"
       style="fill:#ffffff;fill-opacity:1;fill-rule:nonzero;stroke:none;stroke-width:0.106336"
       id="path226492" />
    <path
       d="m 118.86966,90.934957 -0.73267,0.145589 -1.24199,0.247772 -0.73265,0.145588 0.36792,2.805157 1.33239,-0.264652 1.33239,-0.264651 1.33134,-0.264652 -1.65673,-2.54994"
       style="fill:#ffffff;fill-opacity:1;fill-rule:nonzero;stroke:none;stroke-width:0.106336"
       id="path226494" />
    <path
       d="m 138.97572,82.362112 13.97364,8.067746 c 2.22669,1.28558 4.04823,-0.09133 4.04823,-3.060374 V 68.738308 c 0,-2.968892 -1.82154,-6.450357 -4.04823,-7.734882 l -13.97364,-8.067747 c -2.22669,-1.28561 -4.04821,0.09133 -4.04821,3.059289 v 18.633317 c 0,2.967836 1.82152,6.448216 4.04821,7.733827"
       style="fill:#e52559;fill-opacity:1;fill-rule:nonzero;stroke:none;stroke-width:0.106336"
       id="path226496" />
    <path
       d="m 154.49549,86.369927 c 0.082,0.183869 1.06442,4.235361 1.06442,4.235361 l -5.08499,2.967867 -2.28197,-6.078187 6.30254,-1.125041"
       style="fill:#e52559;fill-opacity:1;fill-rule:nonzero;stroke:none;stroke-width:0.106336"
       id="path226498" />
    <path
       d="m 136.4715,52.658156 -5.09138,2.929556 2.1278,3.790879 4.33106,-2.578666 -1.36748,-4.141769"
       style="fill:#e52559;fill-opacity:1;fill-rule:nonzero;stroke:none;stroke-width:0.106336"
       id="path226500" />
    <path
       d="m 133.9407,85.257636 13.9747,8.068802 c 2.22669,1.28561 4.04718,-0.09254 4.04718,-3.061399 V 71.633862 c 0,-2.968921 -1.82049,-6.449302 -4.04718,-7.734912 l -13.9747,-8.067747 c -2.22669,-1.28558 -4.04715,0.09133 -4.04715,3.060375 v 18.632231 c 0,2.967836 1.82046,6.448247 4.04715,7.733827"
       style="fill:#f03b6e;fill-opacity:1;fill-rule:nonzero;stroke:none;stroke-width:0.106336"
       id="path226502" />
    <path
       d="m 149.02344,79.02952 v -0.694364 c -0.68481,-1.592914 -1.33453,-1.82474 -1.33453,-4.942505 0,-1.055924 -0.52744,-3.129491 -3.08482,-4.607562 -0.70712,-0.408311 -0.90705,-0.524239 -1.94914,-0.9283 v 2.065036 c 0.40834,0.226371 0.99425,0.394506 1.51529,0.695449 0.621,0.35942 1.14844,0.908105 1.15483,1.968279 0.0151,2.750931 0.68161,3.599474 1.10801,4.325759 v 0.694394 c -0.84113,0.404061 -1.00062,0.02713 -1.01551,3.207078 -0.006,1.0804 -0.65716,0.952776 -1.33983,0.558271 -0.57102,-0.330694 -1.16652,-0.848574 -1.42279,-0.996363 v 2.083122 c 0.93577,0.735841 1.1229,0.914495 1.84282,1.330282 2.13735,1.234549 3.19114,0.72095 3.19114,-0.73798 0,-3.189023 0.54763,-3.015703 1.33453,-4.020596"
       style="fill:#ffffff;fill-opacity:1;fill-rule:nonzero;stroke:none;stroke-width:0.106336"
       id="path226504" />
    <path
       d="m 137.61888,77.641847 c -0.68481,-0.396646 -1.33667,-1.019753 -1.33667,-2.104403 -0.0121,-3.195382 -0.17332,-3.001867 -1.01445,-4.377845 V 70.46629 c 0.42854,-0.235112 1.09529,-0.313693 1.10804,-3.046538 0,-1.056979 0.52635,-0.999558 1.15054,-0.638028 0.52108,0.301998 1.11124,0.812402 1.51955,1.056979 v -2.066122 c -1.04209,-0.797512 -1.24094,-0.91341 -1.94914,-1.320696 -2.49571,-1.439789 -3.08268,-0.137149 -3.08268,1.042119 v 0.04371 c -0.0151,3.109265 -0.65503,2.559525 -1.33453,3.360232 v 0.695419 c 0.7869,1.914052 1.33453,2.37237 1.33453,5.560337 0,1.461071 1.05378,3.190078 3.19008,4.423602 0.72098,0.416811 0.90705,0.452982 1.84174,0.797512 v -2.083122 c -0.25531,-0.148905 -0.85388,-0.319029 -1.42701,-0.649723"
       style="fill:#ffffff;fill-opacity:1;fill-rule:nonzero;stroke:none;stroke-width:0.106336"
       id="path226506" />
    <path
       d="m 164.06895,107.98917 13.97472,8.06877 c 2.22666,1.28561 4.04715,-0.0913 4.04715,-3.0614 V 94.365361 c 0,-2.968921 -1.82049,-6.449302 -4.04715,-7.734912 l -13.97472,-8.067716 c -2.2267,-1.285611 -4.04716,0.09133 -4.04716,3.060343 v 18.632234 c 0,2.96786 1.82046,6.44824 4.04716,7.73386"
       style="fill:#f5af0c;fill-opacity:1;fill-rule:nonzero;stroke:none;stroke-width:0.106336"
       id="path226508" />
    <path
       d="m 179.59086,111.99804 c 0.082,0.18296 1.06442,4.2343 1.06442,4.2343 l -5.08607,2.96784 -2.28198,-6.0771 6.30363,-1.12504"
       style="fill:#f5af0c;fill-opacity:1;fill-rule:nonzero;stroke:none;stroke-width:0.106336"
       id="path226510" />
    <path
       d="m 161.56579,78.286235 -5.09033,2.9285 2.1278,3.790909 4.33,-2.578665 -1.36747,-4.140744"
       style="fill:#f5af0c;fill-opacity:1;fill-rule:nonzero;stroke:none;stroke-width:0.106336"
       id="path226512" />
    <path
       d="m 159.03604,110.88574 13.97259,8.06775 c 2.22669,1.28561 4.04929,-0.0913 4.04929,-3.06037 V 97.260886 c 0,-2.967837 -1.8226,-6.449302 -4.04929,-7.733828 l -13.97259,-8.068801 c -2.22666,-1.28561 -4.04926,0.09133 -4.04926,3.060344 v 18.632259 c 0,2.96889 1.8226,6.44927 4.04926,7.73488"
       style="fill:#face25;fill-opacity:1;fill-rule:nonzero;stroke:none;stroke-width:0.106336"
       id="path226514" />
    <path
       d="m 163.91477,100.10007 3.55269,2.05229 v 5.11372 c -0.19683,0.0425 -0.43493,0.0732 -0.7167,0.0871 -0.28183,0.0151 -0.60825,-0.0151 -0.97725,-0.0904 -0.37112,-0.0744 -0.79007,-0.20196 -1.25794,-0.3807 -0.47002,-0.17965 -0.99639,-0.43598 -1.57803,-0.77093 -0.86876,-0.5019 -1.65353,-1.10059 -2.35428,-1.79496 -0.70184,-0.69331 -1.29839,-1.5004 -1.79285,-2.41701 -0.49232,-0.91555 -0.87196,-1.955526 -1.13885,-3.115653 -0.26676,-1.160127 -0.39984,-2.465933 -0.39984,-3.914253 0,-1.433399 0.13293,-2.57972 0.39984,-3.441044 0.26677,-0.858129 0.64334,-1.462125 1.13141,-1.813015 0.48915,-0.348779 1.08465,-0.465763 1.7854,-0.350919 0.69967,0.113637 1.48127,0.418981 2.33939,0.914495 0.59122,0.342389 1.12079,0.694364 1.58547,1.054869 0.46257,0.358335 0.88047,0.715644 1.25053,1.067589 0.37003,0.349865 0.6965,0.698644 0.97616,1.037869 0.28184,0.339194 0.5306,0.650777 0.74754,0.93469 v 4.937171 l -3.55269,-2.053342 v -1.420649 c 0,-0.513599 -0.0841,-0.93469 -0.252,-1.261134 -0.16789,-0.327529 -0.41895,-0.589106 -0.75498,-0.782652 -0.33497,-0.192611 -0.58699,-0.22215 -0.75606,-0.09043 -0.1679,0.134134 -0.25109,0.456207 -0.25109,0.971916 v 5.961232 c 0,0.51466 0.0829,0.93361 0.25109,1.26114 0.1691,0.32753 0.42109,0.58697 0.75606,0.78157 0.33603,0.19472 0.58697,0.22335 0.75498,0.0913 0.1679,-0.13504 0.252,-0.45832 0.252,-0.97192 v -1.59822"
       style="fill:#ffffff;fill-opacity:1;fill-rule:nonzero;stroke:none;stroke-width:0.106336"
       id="path226516" />
    <path
       d="m 170.94784,102.04921 v -3.258137 l 2.47232,1.427037 v 3.2592 l 2.42979,1.4015 v 3.29537 l -2.42979,-1.40045 v 3.25708 l -2.47232,-1.42704 v -3.25919 l -2.4436,-1.40896 v -3.29642 l 2.4436,1.41001"
       style="fill:#ffffff;fill-opacity:1;fill-rule:nonzero;stroke:none;stroke-width:0.106336"
       id="path226518" />
    <path
       d="m 86.940071,89.649347 c 1.38556,1.054839 3.299618,1.100565 5.417826,-0.122379 2.038481,-1.177157 3.888722,-3.310256 5.26045,-5.834665 l -0.462568,4.500133 3.162471,-0.23059 c -2.179914,3.593083 -4.94679,6.590731 -7.960353,8.330378 -3.446352,1.98956 -6.566258,1.960834 -8.856743,0.317944 l 0.379622,-4.7596 3.059295,-2.201161"
       style="fill:#face25;fill-opacity:1;fill-rule:nonzero;stroke:none;stroke-width:0.106336"
       id="path226520" />
    <path
       d="m 97.618347,83.692393 c 1.47171,-2.708399 2.390453,-5.867641 2.390453,-8.783391 0,-2.463823 -0.653971,-4.344899 -1.744981,-5.477385 l 3.115651,-1.109066 1.26328,-4.923395 c 1.53335,1.917248 2.4404,4.844693 2.4404,8.579236 0,5.351902 -1.86088,11.197207 -4.7649,15.983393 l -3.162471,0.230591 0.462568,-4.500133"
       style="fill:#913886;fill-opacity:1;fill-rule:nonzero;stroke:none;stroke-width:0.106336"
       id="path226522" />
    <path
       d="m 98.263819,69.431617 c -1.402563,-1.459985 -3.528247,-1.680116 -5.905922,-0.307304 -2.346839,1.354728 -4.444852,3.97698 -5.847427,7.004378 l -0.346655,-4.187525 -3.278347,1.534437 c 2.327699,-4.809607 5.70813,-8.943961 9.472429,-11.11748 4.225806,-2.440402 7.969903,-1.851296 10.284853,1.041033 l -1.26328,4.923395 -3.115651,1.109066"
       style="fill:#f03b6e;fill-opacity:1;fill-rule:nonzero;stroke:none;stroke-width:0.106336"
       id="path226524" />
    <path
       d="m 74.290308,84.049673 -0.04042,-0.05516 v -0.003 l -0.0989,-0.142574 0.115899,-0.17965 0.20524,-4.020565 3.429343,-2.556331 c 0.113789,0.124489 0.224382,0.253198 0.33177,0.387061 l 0.0021,-0.003 0.06273,0.09043 c 0.197796,0.251991 0.384939,0.519989 0.559332,0.806042 l 6.478003,9.342686 c 0,0 0.554012,0.800737 0.683742,0.980447 0.271163,0.37642 0.580597,0.694364 0.920873,0.953831 l -3.059295,2.201161 -0.379621,4.7596 C 83.016239,96.261841 82.57069,95.836499 82.165546,95.347346 L 81.480741,94.41585 74.290284,84.050186"
       style="fill:#913886;fill-opacity:1;fill-rule:nonzero;stroke:none;stroke-width:0.106336"
       id="path226526" />
    <path
       d="m 57.726309,89.232505 c 2.318131,-5.511416 6.03671,-10.365664 10.23061,-12.786956 4.026956,-2.324503 7.61474,-1.900217 9.944567,0.646528 l -3.429343,2.55633 -0.222241,4.345954 c -1.379179,-1.867241 -3.680298,-2.290472 -6.292979,-0.782621 -2.330891,1.345142 -4.416145,3.941893 -5.819784,6.943761 l -3.207099,2.502103 -1.203728,-3.425099"
       style="fill:#f03b6e;fill-opacity:1;fill-rule:nonzero;stroke:none;stroke-width:0.106336"
       id="path226528" />
    <path
       d="m 55.232723,100.76041 c 0,-3.779187 0.927252,-7.804002 2.493586,-11.527905 l 1.203728,3.425099 3.207099,-2.502103 c -1.139923,2.440402 -1.83111,5.148801 -1.83111,7.67535 0,2.732849 0.808156,4.746849 2.12141,5.820829 l 0.478513,4.11416 -3.027395,3.42085 c -2.837051,-1.47382 -4.645831,-5.14561 -4.645831,-10.42628"
       style="fill:#c86dbd;fill-opacity:1;fill-rule:nonzero;stroke:none;stroke-width:0.106336"
       id="path226530" />
    <path
       d="m 74.416847,95.139482 0.0075,-0.006 6.962899,-18.083546 c 0,0 0.833676,-2.119263 0.905985,-2.284083 0.189266,-0.433872 0.384936,-0.864519 0.592293,-1.28986 l 3.278347,-1.534438 0.346654,4.187525 c -0.141429,0.304109 -0.274357,0.613552 -0.401951,0.926191 l -7.398877,19.209642 c -0.08081,0.219137 -0.535935,1.352587 -0.597609,1.496156 -0.284968,0.673084 -0.591229,1.337697 -0.918746,1.98742 l -0.342401,-3.838746 -3.43466,1.484461 c 0.374301,-0.72734 0.711388,-1.481266 1.000621,-2.254332"
       style="fill:#c86dbd;fill-opacity:1;fill-rule:nonzero;stroke:none;stroke-width:0.106336"
       id="path226532" />
    <path
       d="m 62.905949,107.76584 -0.478513,-4.11416 c 1.393005,1.13888 3.354909,1.21863 5.529483,-0.0371 2.141614,-1.23564 4.072679,-3.52931 5.459306,-6.220675 l 3.434661,-1.484461 0.342401,3.838746 c -2.318129,4.60223 -5.598604,8.53134 -9.236368,10.63149 -3.066737,1.77157 -5.881458,1.94808 -8.078365,0.8071 l 3.027395,-3.42085"
       style="fill:#face25;fill-opacity:1;fill-rule:nonzero;stroke:none;stroke-width:0.106336"
       id="path226534" />
  </g>
</svg>
