<?xml version="1.0" encoding="UTF-8" standalone="no"?>
<!-- Created with Inkscape (http://www.inkscape.org/) -->

<svg
   width="191.40318mm"
   height="195.09158mm"
   viewBox="0 0 191.40318 195.09158"
   version="1.1"
   id="svg238851"
   inkscape:export-filename="Customer.svg"
   inkscape:export-xdpi="96"
   inkscape:export-ydpi="96"
   xmlns:inkscape="http://www.inkscape.org/namespaces/inkscape"
   xmlns:sodipodi="http://sodipodi.sourceforge.net/DTD/sodipodi-0.dtd"
   xmlns="http://www.w3.org/2000/svg"
   xmlns:svg="http://www.w3.org/2000/svg">
  <sodipodi:namedview
     id="namedview238853"
     pagecolor="#ffffff"
     bordercolor="#000000"
     borderopacity="0.25"
     inkscape:showpageshadow="2"
     inkscape:pageopacity="0.0"
     inkscape:pagecheckerboard="0"
     inkscape:deskcolor="#d1d1d1"
     inkscape:document-units="mm"
     showgrid="false" />
  <defs
     id="defs238848" />
  <g
     inkscape:label="Layer 1"
     inkscape:groupmode="layer"
     id="layer1"
     transform="translate(-9.3810265,-50.954207)">
    <path
       d="m 193.18069,194.45409 c 0,28.49309 -41.14451,51.5917 -91.8988,51.5917 -50.755317,0 -91.9008632,-23.09861 -91.9008632,-51.5917 0,-28.49308 41.1455462,-51.59076 91.9008632,-51.59076 50.75429,0 91.8988,23.09768 91.8988,51.59076"
       style="fill:#dfeef6;fill-opacity:1;fill-rule:nonzero;stroke:none;stroke-width:0.103142"
       id="path227960" />
    <path
       d="m 60.837714,154.88663 -0.231032,1.35219 c -0.123761,0.72202 0.366158,1.41307 1.087121,1.53785 0.721998,0.1228 1.414083,-0.36719 1.536821,-1.08815 l 0.232056,-1.35219 -2.624972,-0.4497"
       style="fill:#602358;fill-opacity:1;fill-rule:nonzero;stroke:none;stroke-width:0.103142"
       id="path227962" />
    <path
       d="m 63.462686,155.33633 c -0.07116,0.41154 -0.715809,0.6436 -1.439868,0.51984 -0.725089,-0.12368 -1.256273,-0.55799 -1.185104,-0.96954 0.07014,-0.41154 0.714777,-0.6436 1.439868,-0.51984 0.725088,0.12368 1.255241,0.558 1.185104,0.96954"
       style="fill:#792871;fill-opacity:1;fill-rule:nonzero;stroke:none;stroke-width:0.103142"
       id="path227964" />
    <path
       d="M 74.324606,90.122522 72.669173,89.976044 61.354455,154.8557 c -0.04333,0.2567 0.285706,0.52498 0.736439,0.60234 0.450732,0.0784 0.851954,-0.067 0.895275,-0.32283 L 74.324606,90.122522"
       style="fill:#913886;fill-opacity:1;fill-rule:nonzero;stroke:none;stroke-width:0.103142"
       id="path227966" />
    <path
       d="m 91.2152,137.49269 -0.232144,1.35117 c -0.123673,0.72096 0.366167,1.41306 1.088179,1.53682 0.720961,0.12368 1.413034,-0.36511 1.536795,-1.08712 l 0.232144,-1.35219 -2.624974,-0.44868"
       style="fill:#602358;fill-opacity:1;fill-rule:nonzero;stroke:none;stroke-width:0.103142"
       id="path227968" />
    <path
       d="m 93.840174,137.94137 c -0.07105,0.41154 -0.715815,0.64362 -1.440897,0.51983 -0.725083,-0.12367 -1.254218,-0.55799 -1.184077,-0.96851 0.07017,-0.41256 0.714761,-0.64462 1.438821,-0.52086 0.726135,0.12484 1.256293,0.55905 1.186153,0.96954"
       style="fill:#792871;fill-opacity:1;fill-rule:nonzero;stroke:none;stroke-width:0.103142"
       id="path227970" />
    <path
       d="m 104.70106,72.727558 -1.65441,-0.146478 -11.315736,64.87963 c -0.04327,0.25582 0.285648,0.526 0.73745,0.60234 0.449727,0.0775 0.850949,-0.0669 0.895302,-0.32284 h -0.0011 L 104.70106,72.727529"
       style="fill:#913886;fill-opacity:1;fill-rule:nonzero;stroke:none;stroke-width:0.103142"
       id="path227972" />
    <path
       d="m 85.573312,167.87637 0.15677,1.36251 c 0.08356,0.72716 -0.443511,1.39038 -1.171696,1.47493 -0.727155,0.0836 -1.391392,-0.4435 -1.474938,-1.17168 l -0.155746,-1.36354 2.645601,-0.30222"
       style="fill:#602358;fill-opacity:1;fill-rule:nonzero;stroke:none;stroke-width:0.103142"
       id="path227974" />
    <path
       d="m 82.927711,168.17859 c 0.04847,0.41567 0.678677,0.68383 1.408923,0.60027 0.730249,-0.0845 1.284124,-0.48785 1.236678,-0.90249 -0.04745,-0.41461 -0.678677,-0.68281 -1.408926,-0.59925 -0.730246,0.0845 -1.284121,0.48786 -1.236675,0.90147"
       style="fill:#792871;fill-opacity:1;fill-rule:nonzero;stroke:none;stroke-width:0.103142"
       id="path227976" />
    <path
       d="m 84.910107,167.8702 h 0.0041 l -12.12954,-67.86355 -0.01433,-0.151736 h -1.460494 c 0.01637,0.127766 0.02573,0.252606 0.04538,0.381636 l 12.174922,67.85527 v 0.002 l 10e-4,0.001 0.0061,0.0339 0.0082,-0.002 c 0.05467,0.19998 0.367187,0.329 0.735403,0.28681 0.388849,-0.0453 0.683835,-0.26109 0.659079,-0.48168 l -0.02991,-0.062"
       style="fill:#913886;fill-opacity:1;fill-rule:nonzero;stroke:none;stroke-width:0.103142"
       id="path227978" />
    <path
       d="m 116.73056,150.27514 0.15671,1.36251 c 0.0836,0.72716 -0.44353,1.3914 -1.17065,1.47493 -0.72822,0.0836 -1.3914,-0.44455 -1.47496,-1.17168 l -0.15671,-1.36252 2.64561,-0.30324"
       style="fill:#602358;fill-opacity:1;fill-rule:nonzero;stroke:none;stroke-width:0.103142"
       id="path227980" />
    <path
       d="m 114.08495,150.57838 c 0.0485,0.41462 0.67868,0.68278 1.40894,0.59925 0.73128,-0.0845 1.28409,-0.4889 1.23667,-0.90249 -0.0474,-0.41465 -0.67868,-0.68281 -1.40894,-0.59925 -0.73023,0.0836 -1.28413,0.48888 -1.23667,0.90249"
       style="fill:#792871;fill-opacity:1;fill-rule:nonzero;stroke:none;stroke-width:0.103142"
       id="path227982" />
    <path
       d="m 116.06735,150.26894 0.003,-10e-4 -12.12955,-67.86354 -0.0146,-0.149402 h -1.45911 c 0.0175,0.127766 0.0263,0.251732 0.0453,0.381633 l 12.17598,67.855269 -0.001,0.001 0.001,0.002 0.006,0.033 0.009,-0.003 c 0.0559,0.20232 0.36716,0.33005 0.73541,0.28769 0.38987,-0.0444 0.68485,-0.25992 0.65906,-0.48066 l -0.0298,-0.0629"
       style="fill:#913886;fill-opacity:1;fill-rule:nonzero;stroke:none;stroke-width:0.103142"
       id="path227984" />
    <path
       d="m 115.86002,112.00727 -39.429248,22.69233 -4.085466,-2.39599 39.429254,-22.69236 4.08546,2.39602"
       style="fill:#b856b2;fill-opacity:1;fill-rule:nonzero;stroke:none;stroke-width:0.103142"
       id="path227986" />
    <path
       d="m 115.86002,110.50758 -39.429248,22.69233 -0.434228,-0.25875 39.429246,-22.69236 0.43423,0.25875"
       style="fill:#db8dcc;fill-opacity:1;fill-rule:nonzero;stroke:none;stroke-width:0.103142"
       id="path227988" />
    <path
       d="m 72.345306,132.30361 v 0.55078 l 4.085466,2.41458 v -2.06906 l -0.434228,-0.25875 v 1.50689 l -3.651238,-2.14432"
       style="fill:#a941a6;fill-opacity:1;fill-rule:nonzero;stroke:none;stroke-width:0.103142"
       id="path227990" />
    <path
       d="m 115.86002,110.52924 v 2.04736 l -39.429248,22.69237 v -2.04739 l 39.429248,-22.69234"
       style="fill:#c86dbd;fill-opacity:1;fill-rule:nonzero;stroke:none;stroke-width:0.103142"
       id="path227992" />
    <path
       d="M 111.77354,109.5731 72.403064,132.30361 61.795905,73.684726 101.16637,50.954207 111.77354,109.5731"
       style="fill:#97ddec;fill-opacity:1;fill-rule:nonzero;stroke:none;stroke-width:0.103142"
       id="path227994" />
    <path
       d="M 112.48626,110.07539 73.11578,132.80693 62.509652,74.189097 101.88011,51.456502 112.48626,110.07539"
       style="fill:#c86dbd;fill-opacity:1;fill-rule:nonzero;stroke:none;stroke-width:0.103142"
       id="path227996" />
    <path
       d="m 111.54146,109.41633 -10.21522,-56.457036 -0.27629,0.160804 10.16262,56.165162 -37.507731,21.73209 0.0526,0.29091 37.784131,-21.89196"
       style="fill:#a941a6;fill-opacity:1;fill-rule:nonzero;stroke:none;stroke-width:0.103142"
       id="path227998" />
    <path
       d="M 101.04983,53.120186 63.543138,74.852284 73.704722,131.01744 111.21245,109.28534 101.04983,53.120186"
       style="fill:#ffffff;fill-opacity:1;fill-rule:nonzero;stroke:none;stroke-width:0.103142"
       id="path228000" />
    <path
       d="M 62.509652,74.189097 61.795905,73.684726 72.403064,132.30361 73.11578,132.80693 62.509652,74.189097"
       style="fill:#a941a6;fill-opacity:1;fill-rule:nonzero;stroke:none;stroke-width:0.103142"
       id="path228002" />
    <path
       d="m 101.88011,51.456502 -0.71374,-0.502295 -39.370465,22.730519 0.713747,0.504371 39.370458,-22.732595"
       style="fill:#db8dcc;fill-opacity:1;fill-rule:nonzero;stroke:none;stroke-width:0.103142"
       id="path228004" />
    <path
       d="m 104.30294,99.386768 c -1.43575,-1.25834 -3.8173,-2.926147 -5.591352,-3.874046 0.358945,0.06812 1.588402,0.237114 1.953512,0.236236 0.226,0 0.31354,-0.201152 0.0775,-0.29091 -0.898372,-0.343478 -3.159255,-0.72096 -3.023098,-0.312516 0.164021,0.491974 1.169634,1.980323 1.450165,2.350612 0.182441,0.24033 0.383709,0.0058 0.266059,-0.157881 -0.354823,-0.495073 -0.858141,-1.197468 -0.942724,-1.605911 0.58068,0.394 4.462968,3.244861 5.597518,3.936935 0.27951,0.169283 0.46622,-0.05994 0.21256,-0.282724"
       style="fill:#792871;fill-opacity:1;fill-rule:nonzero;stroke:none;stroke-width:0.103142"
       id="path228006" />
    <path
       d="m 107.37656,99.724048 c -2.20104,0.876702 -4.66924,2.011252 -6.61553,3.353152 -0.0877,0.0608 -0.0234,0.2032 0.0816,0.16929 2.24644,-0.71064 4.68058,-1.97828 6.70424,-3.16853 0.19091,-0.112559 0.0392,-0.437326 -0.17016,-0.353766"
       style="fill:#792871;fill-opacity:1;fill-rule:nonzero;stroke:none;stroke-width:0.103142"
       id="path228008" />
    <path
       d="m 107.90055,101.495 c -2.20004,0.87671 -4.66927,2.01024 -6.61454,3.35316 -0.0886,0.0608 -0.0234,0.20203 0.0816,0.16928 2.24542,-0.71064 4.67956,-1.97827 6.70427,-3.16852 0.18975,-0.11256 0.0392,-0.43733 -0.17133,-0.35377"
       style="fill:#792871;fill-opacity:1;fill-rule:nonzero;stroke:none;stroke-width:0.103142"
       id="path228010" />
    <path
       d="m 88.129178,102.3975 c -2.026746,0.32488 -3.74613,-0.17543 -5.149896,-1.23256 0.849893,-1.767852 1.468746,-3.655376 2.159799,-5.48925 0.756036,-2.00921 2.156708,-5.788352 2.449633,-6.445341 1.048957,1.235623 2.315545,2.856007 3.436707,4.026664 1.316083,1.371781 2.590942,2.782768 3.912171,4.146332 -1.556413,2.603305 -3.82864,4.517615 -6.808414,4.994155 z M 84.268561,76.19933 c 1.240803,4.531035 3.018977,12.798934 3.021039,12.806156 -0.894243,1.68225 -1.660591,3.865772 -2.351645,5.635704 -0.798321,2.048388 -1.704944,4.107125 -2.32586,6.22153 -5.888398,-5.048797 -5.698617,-20.388152 1.656466,-24.66339 z m 3.508902,-1.097448 c 4.589828,-0.367161 7.508753,2.681724 8.834134,6.863111 -1.422331,1.176856 -6.963131,5.280881 -8.957904,6.670204 -0.751907,-4.364968 -1.782299,-8.998128 -3.010726,-12.644212 0.936534,-0.480659 1.977238,-0.796275 3.134496,-0.889103 z m 7.500509,21.681576 c -1.435752,-1.374908 -5.766684,-6.103967 -7.366424,-7.803759 1.634807,-0.730258 7.445861,-5.222086 8.868192,-6.452592 1.243897,4.492881 0.71064,10.116218 -1.501768,14.256351 z m 0.366166,0.718884 c 1.660585,-2.824021 2.551735,-6.220506 2.580622,-9.080635 0.03596,-3.608952 -0.743678,-7.4768 -2.922025,-10.386457 -0.893225,-1.193345 -4.300002,-4.417565 -8.25655,-3.610999 -3.946226,0.804521 -6.522722,3.545011 -8.087392,7.648013 -3.288179,8.629915 -0.666301,21.571176 8.366906,21.164806 3.653293,-0.16519 6.443311,-2.57135 8.289553,-5.6852 l 0.02924,-0.04941"
       style="fill:#792871;fill-opacity:1;fill-rule:nonzero;stroke:none;stroke-width:0.103142"
       id="path228012" />
    <path
       d="m 82.010774,88.484625 c -0.110371,-1.513112 0,-2.71058 0.322837,-4.088559 0.289828,0.699295 1.092278,2.809578 1.185106,3.061252 -0.313554,0.344502 -1.09331,0.7911 -1.507943,1.027307 z m 1.535792,-1.996842 c -0.324899,-0.842674 -0.844739,-2.043242 -1.250086,-2.706458 -0.692086,1.35529 -0.980885,5.535654 -0.603383,8.112153 0.03505,0.244423 0.439385,0.184487 0.430102,-0.05877 -0.04125,-0.974709 -0.05774,-1.930824 -0.05982,-2.883869 0.30324,-0.187703 1.292375,-1.035553 1.577046,-1.229454 0.223811,0.600298 0.334181,1.316113 0.621948,1.885449 0.105196,0.209338 0.433199,0.06198 0.373377,-0.157881 -0.276408,-1.009762 -0.71065,-1.984443 -1.089181,-2.961199"
       style="fill:#792871;fill-opacity:1;fill-rule:nonzero;stroke:none;stroke-width:0.103142"
       id="path228014" />
    <path
       d="m 90.202341,83.926751 c -0.115516,-0.917961 -0.313554,-1.829752 -0.573473,-2.728123 0.669394,-0.381604 1.715268,-0.471333 2.083481,0.363067 0.468263,1.058241 -0.516738,2.010262 -1.510008,2.365056 z m -0.367187,-4.821887 c 0.125837,0.572435 -0.08353,1.121159 -0.351715,1.623454 -0.251674,-0.816887 -0.532216,-1.622431 -0.823077,-2.413531 0.567284,-0.05789 1.018016,0.07836 1.174792,0.790077 z m 2.186612,2.083472 c -0.288863,-0.606496 -1.012864,-0.887027 -1.997862,-0.693126 0.28056,-0.651873 0.466213,-1.524457 -0.01637,-2.130924 -0.302208,-0.379558 -1.022142,-0.65082 -1.610052,-0.222788 0.430103,1.991697 1.314031,5.140631 1.601798,6.306113 1.379008,-0.245592 2.687869,-1.86583 2.022606,-3.259275"
       style="fill:#792871;fill-opacity:1;fill-rule:nonzero;stroke:none;stroke-width:0.103142"
       id="path228016" />
    <path
       d="m 95.058283,90.802229 c -0.08157,0.181563 -0.208461,0.54045 -0.616788,0.693126 -0.52396,0.193843 -1.237698,-0.211385 -1.524457,-0.631231 -0.295997,-0.434231 -0.411542,-1.086103 -0.435254,-1.592521 -0.04327,-0.942724 0.452797,-1.958688 1.47183,-1.988597 0.263135,-0.0058 0.249686,-0.282724 0.12572,-0.318715 -1.663684,-0.486829 -2.366079,1.794696 -2.027775,3.203608 0.207292,0.859164 0.741601,1.757535 1.701868,1.887495 0.710639,0.0959 1.625501,-0.434231 1.566734,-1.196445 -0.0117,-0.18244 -0.169284,-0.258749 -0.261966,-0.05672"
       style="fill:#792871;fill-opacity:1;fill-rule:nonzero;stroke:none;stroke-width:0.103142"
       id="path228018" />
    <path
       d="m 88.350936,99.316628 c -0.182557,-0.897348 -0.81689,-3.469725 -1.082995,-4.165921 0.51468,-0.320762 0.99945,-0.444552 1.376949,-0.407421 0.816887,0.08245 1.402737,0.614742 1.709069,1.364588 0.587902,1.439874 -0.660111,2.84054 -2.003023,3.208754 z m 2.345449,-3.491361 c -0.299096,-0.822062 -1.065453,-1.434727 -1.922568,-1.566733 -0.58791,-0.0918 -1.505876,0.22688 -1.885439,0.726106 -0.05055,0.06491 1.067523,4.338186 1.282057,4.804373 2.004058,-0.472385 3.186068,-2.150513 2.52595,-3.963746"
       style="fill:#792871;fill-opacity:1;fill-rule:nonzero;stroke:none;stroke-width:0.103142"
       id="path228020" />
    <path
       d="m 94.270282,71.85705 c -0.472385,0.314563 -1.941145,1.169634 -2.048416,1.167558 0.537379,-2.128848 1.30889,-4.580563 1.62243,-6.749641 0.06695,-0.46724 -0.303248,-0.674532 -0.495073,0.09297 -0.52089,2.083472 -1.124258,4.242259 -1.577055,6.349443 -0.1073,-0.369237 -0.218694,-0.73745 -0.322837,-1.107739 -0.07426,-0.266059 -0.450721,-0.150572 -0.406368,0.112563 0.118703,0.710669 0.122796,1.497646 0.473409,2.13607 0.05146,0.09297 0.17016,0.135076 0.270152,0.110516 0.959214,-0.249685 1.925649,-1.129403 2.745636,-1.663684 0.279507,-0.180393 0.01462,-0.63433 -0.261966,-0.447621"
       style="fill:#792871;fill-opacity:1;fill-rule:nonzero;stroke:none;stroke-width:0.103142"
       id="path228022" />
    <path
       d="m 97.043781,61.280815 c -1.507937,0.996374 -4.578487,2.517703 -6.608338,4.076192 -0.274361,0.210507 -0.104084,0.43423 0.218695,0.2836 2.299038,-1.07473 4.635207,-2.470251 6.627927,-3.954477 0.23916,-0.178347 0.01754,-0.574482 -0.238284,-0.405345"
       style="fill:#792871;fill-opacity:1;fill-rule:nonzero;stroke:none;stroke-width:0.103142"
       id="path228024" />
    <path
       d="m 101.41699,109.95987 c -1.506881,0.99638 -4.578483,2.51876 -6.608305,4.0762 -0.274245,0.21138 -0.104084,0.43525 0.217525,0.28477 2.30009,-1.07371 4.635236,-2.47025 6.62793,-3.95448 0.24033,-0.17835 0.0205,-0.57553 -0.23712,-0.4064"
       style="fill:#792871;fill-opacity:1;fill-rule:nonzero;stroke:none;stroke-width:0.103142"
       id="path228026" />
    <path
       d="m 96.820994,59.70069 c -0.927258,0.45382 -1.819431,0.990147 -2.720902,1.492472 -0.778732,0.435254 -1.704938,0.812764 -2.310382,1.478028 l 0.0918,0.158758 c 0.887028,-0.162852 1.700816,-0.751893 2.482648,-1.184048 0.90457,-0.499226 1.830775,-0.971611 2.707481,-1.518259 0.271322,-0.17016 0.03392,-0.566266 -0.250562,-0.427009"
       style="fill:#792871;fill-opacity:1;fill-rule:nonzero;stroke:none;stroke-width:0.103142"
       id="path228028" />
    <path
       d="m 82.0871,105.01215 c -0.344496,-0.96336 -1.142818,-3.34593 -1.142818,-3.4656 0,-0.13303 -0.187732,-0.15379 -0.226909,-0.031 -0.03921,0.12279 -0.826171,1.09022 -1.147976,1.47186 -0.3053,0.36099 -0.727152,0.72198 -0.857112,1.18404 -0.04745,0.16929 0.142327,0.30533 0.290852,0.22279 0.416697,-0.23214 0.67352,-0.73128 0.953036,-1.10876 0.14338,-0.19384 0.285706,-0.39298 0.424945,-0.59618 -0.381624,2.8292 -1.025234,6.44537 -1.481121,9.5706 -0.04435,0.30427 0.416694,0.43937 0.469295,0.12893 0.510555,-3.03035 1.2965,-6.20507 1.513098,-9.31377 0.187732,0.71684 0.522934,1.4378 0.748815,2.05874 0.1506,0.41566 0.607508,0.30012 0.455889,-0.12163"
       style="fill:#792871;fill-opacity:1;fill-rule:nonzero;stroke:none;stroke-width:0.103142"
       id="path228030" />
    <path
       d="m 82.925647,112.18468 c -1.099498,0.57138 -5.342774,2.64661 -6.32572,3.11797 -0.351715,0.16928 -0.04333,0.70549 0.308397,0.52706 0.455887,-0.23214 4.698131,-2.3238 6.316437,-3.13241 0.339338,-0.16929 0.03403,-0.70345 -0.299114,-0.51262"
       style="fill:#792871;fill-opacity:1;fill-rule:nonzero;stroke:none;stroke-width:0.103142"
       id="path228032" />
    <path
       d="m 83.42795,114.57757 c -1.098465,0.57039 -5.343805,2.64559 -6.325719,3.11695 -0.351715,0.16928 -0.04333,0.70549 0.308394,0.52706 0.456922,-0.23302 4.698134,-2.32378 6.316439,-3.1314 0.339339,-0.17016 0.03403,-0.70549 -0.299114,-0.51261"
       style="fill:#792871;fill-opacity:1;fill-rule:nonzero;stroke:none;stroke-width:0.103142"
       id="path228034" />
    <path
       d="m 97.407872,110.28376 c -1.550244,-2.36198 -3.013829,-5.19837 -4.935356,-7.30766 0.302196,0.21139 1.771979,0.81382 2.324825,1.13666 0.302196,0.1763 0.386779,-0.1804 0.175423,-0.32802 -0.271321,-0.19179 -0.925182,-0.50022 -1.17478,-0.63225 -0.441452,-0.23302 -1.863783,-0.86434 -1.910212,-0.50539 -0.05789,0.46001 0.02631,2.43107 0.199105,2.93851 0.09707,0.28682 0.450721,0.30945 0.410491,-0.0319 -0.06491,-0.55697 -0.117534,-1.67196 -0.140339,-2.0773 1.454317,2.18662 3.173698,4.72909 4.758998,6.97757 0.123673,0.17543 0.412566,0.0146 0.291787,-0.17016"
       style="fill:#792871;fill-opacity:1;fill-rule:nonzero;stroke:none;stroke-width:0.103142"
       id="path228036" />
    <path
       d="m 125.5121,102.51816 c 0.17747,-0.51674 0.42493,-0.98708 0.71064,-1.42955 -0.31354,-0.19706 -0.69517,-0.40327 -1.17686,-0.62711 -2.38464,-1.109817 -10.7299,-4.292783 -11.0816,-3.445986 -0.39607,0.949946 1.03863,1.12838 2.14432,1.623454 1.16139,0.519837 1.59872,0.635383 1.59872,0.635383 0,0 -1.62965,3.058149 0.2836,3.739939 1.18615,0.42288 2.68892,1.09019 5.22004,0.63535 0.70961,-0.12777 1.41511,-0.0526 2.03602,0.0649 0.0526,-0.43424 0.14648,-0.85195 0.26518,-1.19645"
       style="fill:#fabeaf;fill-opacity:1;fill-rule:nonzero;stroke:none;stroke-width:0.103142"
       id="path228038" />
    <path
       d="m 124.73647,100.0706 c 0,0 -1.47186,0 -1.87721,2.19486 -0.27015,1.45742 0.26811,2.58475 0.26811,2.58475 0,0 7.23647,4.27526 11.5829,5.20971 1.6348,1.56984 5.547,3.39441 6.24115,3.76058 0.6931,0.36821 11.13525,9.67579 13.11145,9.42929 1.9762,-0.24647 3.53469,-7.24267 1.80086,-12.35234 -1.73382,-5.11072 -7.04566,-3.55533 -7.04566,-3.55533 0,0 -6.05342,-2.25261 -10.3555,-3.19431 -4.35672,-2.35269 -13.72616,-4.07721 -13.72616,-4.07721"
       style="fill:#f5af0c;fill-opacity:1;fill-rule:nonzero;stroke:none;stroke-width:0.103142"
       id="path228040" />
    <path
       d="m 154.05778,180.12556 c 0.25173,0.71891 0.8468,2.07914 1.02523,3.68508 0.20846,1.89162 -0.11139,2.86662 -1.38727,3.29053 -1.36974,0.45488 -3.28612,0.15759 -6.48148,-1.54515 -3.19533,-1.70102 -4.59498,-3.38617 -4.70845,-4.48259 -0.11344,-1.09537 1.49557,-2.68892 4.25463,-1.8256 2.76011,0.86226 4.1618,1.51308 4.1618,1.51308 l 3.13554,-0.63535"
       style="fill:#face25;fill-opacity:1;fill-rule:nonzero;stroke:none;stroke-width:0.103142"
       id="path228042" />
    <path
       d="m 145.3175,142.00414 c 0.32386,-2.06801 0.29395,-4.96425 1.16343,-6.86101 -0.47651,-0.26196 5.449,-1.23255 7.19417,-1.5822 0.88498,-0.17835 4.97664,7.31486 2.02365,11.44672 -0.25466,4.35055 -0.78078,8.49378 -2.85495,12.93716 0.56623,1.47183 0.84267,2.26191 1.63892,5.13751 1.43367,5.1798 0.51881,12.0233 -0.15467,17.53729 -0.28769,2.36713 -5.02301,1.58509 -6.02248,0.40227 -0.70137,-3.4625 -1.20984,-11.87995 -2.69924,-17.40116 -1.12423,-4.17004 -1.41303,-5.03643 -0.98705,-7.80478 0.98191,-6.37833 0.48786,-12.46786 0.69828,-13.8118"
       style="fill:#602358;fill-opacity:1;fill-rule:nonzero;stroke:none;stroke-width:0.103142"
       id="path228044" />
    <path
       d="m 148.97387,179.99045 c -0.29497,0.22893 -1.60179,0.76531 -2.38877,1.76166 -0.788,0.99658 -1.65234,0.17952 -1.08402,-0.82925 0.56729,-1.00875 2.03087,-1.42853 2.03087,-1.42853 0,0 1.16964,0.20846 1.44192,0.49612"
       style="fill:#602358;fill-opacity:1;fill-rule:nonzero;stroke:none;stroke-width:0.103142"
       id="path228046" />
    <path
       d="m 143.73114,185.99033 c 0.25174,0.71675 0.84785,2.07821 1.02527,3.68415 0.20933,1.89162 -0.11023,2.86747 -1.38728,3.29127 -1.36973,0.45373 -3.28612,0.15671 -6.48148,-1.54507 -3.19431,-1.7031 -4.59497,-3.38719 -4.70739,-4.4835 -0.11461,-1.09546 1.49452,-2.68818 4.25565,-1.82674 2.75905,0.8634 4.15972,1.51411 4.15972,1.51411 l 3.13551,-0.63422"
       style="fill:#face25;fill-opacity:1;fill-rule:nonzero;stroke:none;stroke-width:0.103142"
       id="path228048" />
    <path
       d="m 136.32758,147.86058 c 0.32389,-2.068 1.03041,-7.04669 1.8999,-8.94246 -0.47651,-0.26196 4.56199,1.48733 6.30614,1.13663 1.48525,-0.29705 5.7842,-4.88069 5.80072,-4.7105 3.88124,4.62182 3.01175,11.41064 -1.1057,14.31615 -0.0319,0.0234 -0.25377,8.15136 -6.71043,14.14805 0.56521,1.47285 1.28413,3.27477 1.6379,5.1375 1.00356,5.27986 0.51881,12.02436 -0.15262,17.53721 -0.28974,2.36742 -5.02406,1.58538 -6.02354,0.40245 -0.70239,-3.46178 -1.21088,-11.87899 -2.6992,-17.40228 -1.12426,-4.16902 -1.41409,-5.0354 -0.98708,-7.8027 0.9819,-6.37936 1.82458,-12.47508 2.03394,-13.82005"
       style="fill:#913886;fill-opacity:1;fill-rule:nonzero;stroke:none;stroke-width:0.103142"
       id="path228050" />
    <path
       d="m 138.64829,185.85295 c -0.296,0.2301 -1.60179,0.76636 -2.38979,1.76271 -0.788,0.99634 -1.65234,0.17981 -1.08403,-0.82917 0.56729,-1.00769 2.03087,-1.42873 2.03087,-1.42873 0,0 1.17066,0.20963 1.44295,0.49519"
       style="fill:#913886;fill-opacity:1;fill-rule:nonzero;stroke:none;stroke-width:0.103142"
       id="path228052" />
    <path
       d="m 139.37752,95.353905 c 1.68225,-1.143847 3.78327,-0.999444 5.56247,0.07748 1.68947,1.024179 2.39186,2.315528 2.4651,3.694559 0.0234,0.459988 -0.0857,2.425896 -0.29705,2.986986 -0.63535,1.68225 -1.19644,2.73017 -2.02467,3.7709 -1.0469,1.31711 -3.86785,2.64559 -5.6976,2.06283 -1.62758,-0.51881 -2.72605,-2.90036 -2.38775,-6.43093 0.24121,-2.529043 0.16812,-4.656868 2.3795,-6.161707"
       style="fill:#fabeaf;fill-opacity:1;fill-rule:nonzero;stroke:none;stroke-width:0.103142"
       id="path228054" />
    <path
       d="m 144.04986,111.14085 c 4.72701,-2.3052 6.19989,-4.71979 9.46744,-1.84314 2.02985,1.78438 2.37433,9.07034 2.09894,12.09964 -0.20612,2.27223 -1.5822,7.19106 -1.35219,11.22703 0.0763,1.345 1.34807,3.0592 1.59974,4.3062 -1.56983,1.96383 -6.34532,6.15759 -10.60199,6.13285 -4.25773,-0.0263 -6.09984,-0.77253 -7.63977,-2.28667 -0.006,-3.26653 0.25583,-5.27781 0.1,-7.21998 -0.45072,-5.62433 -1.23255,-10.15127 -1.42335,-13.63643 -0.25787,-4.68886 2.24954,-6.09777 7.75113,-8.7795"
       style="fill:#face25;fill-opacity:1;fill-rule:nonzero;stroke:none;stroke-width:0.103142"
       id="path228056" />
    <path
       d="m 146.9822,102.71414 c 0,0 0.26723,2.68067 0.66115,3.92559 0.56419,1.7823 2.0092,2.99216 2.0092,2.99216 0,0 1.5884,2.38982 -1.04689,3.52025 -2.63632,1.1294 -5.77391,-1.18922 -5.77391,-1.18922 0,0 -0.0205,-1.4533 -1.02213,-3.94109 -0.73128,-1.81116 5.17258,-5.30769 5.17258,-5.30769"
       style="fill:#fabeaf;fill-opacity:1;fill-rule:nonzero;stroke:none;stroke-width:0.103142"
       id="path228058" />
    <path
       d="m 136.18423,95.086765 c 0,0 -0.60752,3.161301 3.05403,4.503201 0.63846,1.901934 3.06748,3.041664 3.06748,3.041664 0,0 -0.10408,1.78022 1.99787,3.23042 1.59664,1.10051 3.68424,1.48007 3.68424,1.48007 0,0 1.75856,-4.59807 2.20931,-7.33652 0.46206,-2.810599 -1.19338,-5.566585 -4.14116,-6.572228 -1.83697,-0.627079 -3.59454,-0.526006 -5.65427,0.06812 -1.92568,0.554893 -4.2175,1.585299 -4.2175,1.585299"
       style="fill:#602358;fill-opacity:1;fill-rule:nonzero;stroke:none;stroke-width:0.103142"
       id="path228060" />
    <path
       d="m 142.73582,102.36654 c 0.61989,2.12475 -1.5698,2.73946 -1.5698,2.73946 l -1.24083,-2.30418 c 0,0 2.10824,-2.842617 2.81063,-0.43528"
       style="fill:#fabeaf;fill-opacity:1;fill-rule:nonzero;stroke:none;stroke-width:0.103142"
       id="path228062" />
    <path
       d="m 151.19762,135.14313 c 0,0 -3.1582,3.22937 -6.1349,3.4697 -2.97772,0.24237 -4.11124,-0.0146 -4.11124,-0.0146 0,0 1.94629,-1.48835 4.18758,-1.90709 2.24229,-0.41876 6.05856,-1.54816 6.05856,-1.54816"
       style="fill:#f5af0c;fill-opacity:1;fill-rule:nonzero;stroke:none;stroke-width:0.103142"
       id="path228064" />
    <path
       d="m 123.23058,121.38805 c -0.40327,-1.15209 0,-1.4708 0.80656,-2.68067 0.80762,-1.21089 -0.57138,-1.64716 -1.25419,-0.63947 -0.33108,0.48992 -0.73747,0.78902 -1.1325,1.16653 -0.21548,-0.40122 -0.41876,-0.81689 -0.55492,-1.19542 -0.46929,-1.29547 -0.95509,-3.08394 -1.60281,-2.59401 -0.1918,0.14443 -0.4064,0.54252 -0.59103,1.08815 -1.00769,0.038 -0.72611,3.43668 -0.15671,4.98281 0.52086,1.41303 1.78747,3.12726 2.52904,3.64503 0.43011,0.6766 0.74675,0.36306 0.74675,0.36306 l 2.29597,-0.86536 c 0,0 -0.68178,-2.11856 -1.08611,-3.27065"
       style="fill:#fabeaf;fill-opacity:1;fill-rule:nonzero;stroke:none;stroke-width:0.103142"
       id="path228066" />
    <path
       d="m 132.37416,133.92605 c -0.44353,0.12688 -1.51724,0.60854 -3.12522,-0.72819 -2.60021,-2.16185 -7.20037,-6.15966 -7.83572,-6.99307 -1.12838,-1.48112 0.93343,-4.20819 3.19639,-3.42946 2.55173,0.87875 4.20819,1.36456 7.0611,3.56355 1.47496,-3.60174 4.52384,-10.05018 5.26027,-10.86294 2.90138,-3.20565 4.40932,-2.59404 5.82341,-0.86846 1.26866,1.54714 1.96281,4.94258 2.02883,7.88729 0.0669,2.94679 -0.4002,5.27883 -1.93495,5.97401 -1.5358,0.69415 -1.56057,0.62918 -3.14999,0.71683 -0.38058,0.54563 -4.10092,3.8266 -7.32412,4.74044"
       style="fill:#f5af0c;fill-opacity:1;fill-rule:nonzero;stroke:none;stroke-width:0.103142"
       id="path228068" />
    <path
       d="m 149.96095,108.8676 c 1.0005,0.36307 2.28357,2.39292 -0.10321,4.25875 -2.38669,1.86791 -4.90545,0.30117 -5.8729,-0.17835 -0.96647,-0.4796 -2.23922,-0.65494 -2.23922,-0.65494 0,0 0.4466,-1.45741 2.80133,-1.44195 1.42335,0.009 3.56048,-0.40534 4.18656,-1.27793 0.65392,-0.91383 0.65392,-0.91383 1.22738,-0.70549"
       style="fill:#f5af0c;fill-opacity:1;fill-rule:nonzero;stroke:none;stroke-width:0.103142"
       id="path228070" />
    <path
       d="m 120.07854,139.28943 c 0,0 0.68386,5.2025 1.16964,8.27717 0.4858,3.07573 0.89012,5.74505 0,7.20346 -0.8901,1.4564 -4.28968,7.44587 -4.28968,7.44587 l -3.7224,-1.45534 4.26904,-8.58144 -1.04689,-8.01313 3.62029,-4.87659"
       style="fill:#fabeaf;fill-opacity:1;fill-rule:nonzero;stroke:none;stroke-width:0.103142"
       id="path228072" />
    <path
       d="m 120.86552,145.00765 c 0,0 -1.79364,1.82562 -4.06379,1.78642 -2.27223,-0.038 -2.37024,-2.46613 -2.37024,-2.46613 l 6.13493,-1.43882 0.2991,2.11853"
       style="fill:#f03b6e;fill-opacity:1;fill-rule:nonzero;stroke:none;stroke-width:0.103142"
       id="path228074" />
    <path
       d="m 115.98794,204.79205 c 0.13712,-2.08058 0.32488,-4.46286 0.82411,-7.04792 0.85916,-4.43792 1.83694,-10.91133 -1.08815,-13.83955 3.28404,-8.35751 2.12677,-12.98137 1.63892,-15.53931 4.89512,-5.19013 0.23214,-10.67318 -2.12578,-12.35646 -1.2439,1.5389 -8.66085,4.57849 -8.70418,4.76725 -0.89629,3.81215 -0.0775,7.8027 1.05207,11.49419 0.70342,2.30109 1.31196,6.18648 2.94676,12.48847 -0.76119,3.13335 0.10204,7.87986 0.41979,11.42826 0.22074,2.47139 0.14443,5.2808 0.58895,7.93062 0.71374,0.81142 2.06903,1.57902 4.44751,0.67445"
       style="fill:#602358;fill-opacity:1;fill-rule:nonzero;stroke:none;stroke-width:0.103142"
       id="path228076" />
    <path
       d="m 107.42401,204.42179 c -1.67813,0.66526 -2.15773,1.26956 -1.70596,2.34535 0.66526,1.58334 2.35473,2.56401 3.8503,2.87466 2.25677,0.46817 3.5254,3.09955 5.93583,0.61567 0.61679,-0.6362 0.4951,-1.82636 0.28272,-2.70637 0.0433,-0.61275 0.15671,-2.07727 0.20115,-2.75905 -2.37847,0.90457 -3.73376,0.13712 -4.4475,-0.67445 0.0959,0.57533 0.20846,1.14593 0.36307,1.70073 -0.86124,-0.26401 -3.35626,-1.8413 -4.47949,-1.39654"
       style="fill:#f9aa9a;fill-opacity:1;fill-rule:nonzero;stroke:none;stroke-width:0.103142"
       id="path228078" />
    <path
       d="m 115.80845,207.25417 c 0,0 -1.41099,0.50724 -2.3176,0.79616 -0.90764,0.28769 -3.08602,0.40534 -4.75383,-1.20987 -1.29649,-1.25544 0.6962,-2.11844 0.6962,-2.11844 0,0 -3.1582,-1.88565 -5.25922,-1.00894 -0.97365,0.40742 -1.01903,2.05368 -0.46001,3.06332 0.56933,1.02936 2.6621,2.38991 3.60483,2.62726 0.94374,0.23799 3.07157,0.63421 3.78428,1.06453 1.31196,0.79203 2.9705,1.89968 4.46812,0.45569 1.49662,-1.44482 0.23711,-3.66971 0.23711,-3.66971"
       style="fill:#f0423f;fill-opacity:1;fill-rule:nonzero;stroke:none;stroke-width:0.103142"
       id="path228080" />
    <path
       d="m 107.90879,209.84932 c 0.13508,-2.08058 0.32386,-4.46212 0.82306,-7.04792 0.85817,-4.43841 1.83697,-10.91059 -1.08815,-13.83963 3.28407,-8.35763 3.61723,-14.81949 3.12934,-17.37742 5.68521,-4.42482 3.62752,-10.42666 1.26969,-12.11201 -1.24492,1.53887 -9.46329,-0.9355 -10.29462,1.59355 -1.60285,4.87965 -1.52858,6.60833 -1.3089,13.13413 0.0816,2.40427 0.37752,9.31489 2.01231,15.61586 -0.76221,3.13338 0.10204,7.88112 0.41877,11.42788 0.22191,2.47262 0.14531,5.28118 0.58892,7.93185 0.71377,0.81183 2.07008,1.57901 4.44958,0.67371"
       style="fill:#913886;fill-opacity:1;fill-rule:nonzero;stroke:none;stroke-width:0.103142"
       id="path228082" />
    <path
       d="m 99.343843,209.47906 c -1.678128,0.66515 -2.157735,1.26945 -1.707014,2.34523 0.665292,1.58346 2.354764,2.56402 3.850301,2.87469 2.25676,0.46815 3.51613,2.88881 5.92656,0.40617 0.61886,-0.6374 0.50542,-1.61726 0.29293,-2.49604 0.0433,-0.6136 0.15671,-2.07812 0.20232,-2.75979 -2.3795,0.9053 -3.73581,0.138 -4.44958,-0.67371 0.0971,0.5746 0.20846,1.14466 0.36412,1.69988 -0.86124,-0.26431 -3.35626,-1.8413 -4.479491,-1.39643"
       style="fill:#f9aa9a;fill-opacity:1;fill-rule:nonzero;stroke:none;stroke-width:0.103142"
       id="path228084" />
    <path
       d="m 107.72828,212.31218 c 0,0 -1.41099,0.50723 -2.3176,0.79531 -0.90764,0.28769 -3.08704,0.40619 -4.75382,-1.20987 -1.296498,-1.25544 0.69619,-2.11885 0.69619,-2.11885 0,0 -3.1582,-1.88512 -5.259214,-1.00842 -0.97471,0.40731 -1.019063,2.05356 -0.460019,3.06447 0.568313,1.02813 2.662106,2.38836 3.60483,2.62682 0.942723,0.2374 3.071573,0.63424 3.784283,1.06455 1.31197,0.7909 2.9705,1.89966 4.4671,0.45485 1.49762,-1.444 0.23828,-3.66886 0.23828,-3.66886"
       style="fill:#f0423f;fill-opacity:1;fill-rule:nonzero;stroke:none;stroke-width:0.103142"
       id="path228086" />
    <path
       d="m 117.47731,133.7053 c -2.1825,-0.7818 -4.83946,0.46108 -4.94775,2.70234 -1.20159,2.03605 0.0234,6.55574 1.90193,7.9203 2.18356,1.58737 5.71409,0.31871 6.44023,-2.13607 0.75087,-2.53729 -0.84475,-7.57375 -3.39441,-8.48657"
       style="fill:#ee2566;fill-opacity:1;fill-rule:nonzero;stroke:none;stroke-width:0.103142"
       id="path228088" />
    <path
       d="m 117.24832,137.39986 c -0.0371,-0.17951 -0.20115,-0.32696 -0.37336,-0.37438 -2.57547,-0.70964 -3.17369,-2.10101 -3.62134,-4.43101 -0.064,-0.33313 -0.50022,-0.48271 -0.77152,-0.31457 -1.36353,0.8406 -2.76934,1.45429 -4.31339,1.87615 1.444,4.31033 -1.17066,5.23033 -2.30626,6.94355 -0.28682,0.43215 2.69406,2.60021 4.28761,2.37537 1.37801,-0.19296 2.74359,-0.6302 3.92252,-1.38107 1.30269,-0.82721 3.55325,-2.9241 3.17574,-4.69404"
       style="fill:#fabeaf;fill-opacity:1;fill-rule:nonzero;stroke:none;stroke-width:0.103142"
       id="path228090" />
    <path
       d="m 113.58987,127.51573 c -0.23945,-2.21858 -2.05768,-5.17361 -4.54653,-4.98588 -2.53521,0.19092 -4.25875,3.9555 -4.45677,5.70687 -0.33623,2.97874 -0.0731,8.59278 4.62594,6.78984 3.66155,-1.40376 4.73628,-4.202 4.37736,-7.51083"
       style="fill:#fabeaf;fill-opacity:1;fill-rule:nonzero;stroke:none;stroke-width:0.103142"
       id="path228092" />
    <path
       d="m 117.4969,123.12188 c -1.13973,-2.44964 -3.84101,-4.7497 -7.65728,-2.93337 -2.45686,-0.90559 -6.05962,0.52706 -6.83011,3.33459 0.79216,2.25161 2.22066,4.71877 3.84826,3.85238 -0.11344,2.72707 3.5615,6.65576 5.95749,6.65576 0.88393,-1.86068 2.8292,-1.88852 4.13601,-4.49803 0.71994,-1.43885 1.25215,-4.8941 0.54563,-6.41133"
       style="fill:#913886;fill-opacity:1;fill-rule:nonzero;stroke:none;stroke-width:0.103142"
       id="path228094" />
    <path
       d="m 106.85777,129.20108 c 0,0 1.8813,-1.28927 2.1794,0.5446 0.29705,1.83285 -1.49042,2.46408 -1.49042,2.46408 l -0.68898,-3.00868"
       style="fill:#fabeaf;fill-opacity:1;fill-rule:nonzero;stroke:none;stroke-width:0.103142"
       id="path228096" />
    <path
       d="m 116.58718,120.71247 c -1.55849,-0.68175 -2.5672,-0.78388 -3.8998,0.2146 -1.38108,1.03348 -0.87466,5.30977 1.35424,5.81928 1.4306,0.32696 3.27892,-0.0599 4.04113,-1.3264 0.97161,-1.61109 0.80657,-3.6997 -1.49557,-4.70742"
       style="fill:#f03b6e;fill-opacity:1;fill-rule:nonzero;stroke:none;stroke-width:0.103142"
       id="path228098" />
    <path
       d="m 118.6882,146.23815 c 1.62863,-5.03748 0.63327,-8.38754 -0.80657,-10.03371 -0.59205,-0.67865 -1.99582,-2.0752 -3.53159,-0.69207 0.49817,2.29389 -3.46148,3.02929 -6.33295,3.02929 -2.1732,1.62141 -4.12365,2.75494 -5.36547,4.95083 -1.31506,2.3238 -1.94527,4.68473 0.86022,6.37833 -0.86022,2.54863 -0.81896,6.13799 -2.22995,12.69476 2.61775,2.08142 7.76663,2.28667 10.76084,0.99842 3.23971,-1.3945 5.89562,-3.29746 5.78733,-4.88896 -0.72406,-1.54919 -2.67345,-3.02929 -2.59507,-4.95494 0.10116,-2.43108 2.70646,-5.17364 3.45321,-7.48195"
       style="fill:#f03b6e;fill-opacity:1;fill-rule:nonzero;stroke:none;stroke-width:0.103142"
       id="path228100" />
    <path
       d="m 102.96724,141.94329 c -1.16756,0.68796 -2.60021,1.65337 -3.468674,2.70646 -1.122182,1.35942 -2.472327,2.5734 -3.458381,4.04629 -1.610034,-1.97416 -3.861649,-2.85911 -5.910045,-4.23092 -0.67352,-0.45072 -1.389326,-1.29339 -1.821492,-2.03912 -0.589975,-1.01903 -0.09593,-1.11186 0.09797,-2.24644 0.220711,-1.28413 0.747779,-1.9731 0.561094,-2.13712 -0.601322,-0.53425 -1.168605,0.78183 -2.078321,1.71219 -0.318709,0.3259 -1.298561,-0.41155 -1.86172,-0.76841 -0.179457,-0.11461 -0.915902,-0.50747 -1.416141,-1.13561 -0.285706,-0.35687 -0.420823,-0.66011 -0.68796,-0.96953 -0.264042,-0.30325 -0.70859,-0.0205 -0.567284,0.526 -0.424948,-0.3847 -0.707558,-0.26196 -0.585849,0.44353 -0.335213,0.26723 -0.344496,0.60957 0.04023,1.09537 -0.456919,-0.18244 -0.195977,0.66319 0.120662,0.93033 0.601322,0.50645 1.359419,1.48011 2.105137,2.1856 1.03555,0.9819 2.260881,1.64822 2.872514,2.50946 1.856562,2.61053 4.776525,5.72645 6.726939,8.22559 1.012864,1.29857 1.551267,1.92361 2.78072,1.36766 1.61521,-0.73128 2.423852,-0.8963 5.516041,-3.01792 2.26501,-1.55437 3.60793,-2.14227 5.09008,-4.58983 1.62863,-2.68895 -2.72812,-5.39435 -4.05555,-4.61358"
       style="fill:#fabeaf;fill-opacity:1;fill-rule:nonzero;stroke:none;stroke-width:0.103142"
       id="path228102" />
    <path
       d="m 106.23376,139.70718 c -3.29439,-1.22636 -6.402036,2.68789 -7.220999,5.50881 -1.084028,0.75397 1.917409,5.56866 3.385139,5.61612 2.85806,1.43265 5.85434,0.30117 7.42932,-2.65799 1.52858,-2.87355 -0.67041,-7.37777 -3.59346,-8.46694"
       style="fill:#ee2566;fill-opacity:1;fill-rule:nonzero;stroke:none;stroke-width:0.103142"
       id="path228104" />
    <path
       d="m 99.012761,145.21599 -0.986054,1.07991 c 0,0 -0.544572,0.96129 0.558021,2.75391 1.102593,1.79054 2.902402,2.40011 2.902402,2.40011 l 0.91077,-0.61781 c 0,0 -1.72455,-1.08611 -2.62085,-2.50017 -0.895272,-1.41408 -0.764289,-3.11595 -0.764289,-3.11595"
       style="fill:#f03b6e;fill-opacity:1;fill-rule:nonzero;stroke:none;stroke-width:0.103142"
       id="path228106" />
    <path
       d="m 114.35621,121.2385 c -1.26451,1.53063 -0.70032,3.30468 -0.067,4.78786 0.32696,0.76429 4.35467,2.02263 3.54088,4.93331 -0.52706,1.88027 -2.18249,4.69608 -1.92258,8.24004 0.25992,3.54293 3.60586,2.28152 3.60586,2.28152 0,0 -2.07418,-1.07064 -0.86949,-3.0293 1.20469,-1.95868 4.58363,-7.34786 3.63989,-12.35853 -0.94477,-5.01064 -5.58516,-7.68617 -7.92752,-4.8549"
       style="fill:#602358;fill-opacity:1;fill-rule:nonzero;stroke:none;stroke-width:0.103142"
       id="path228108" />
    <path
       d="m 19.353862,97.700395 c -2.02056,1.071631 -4.184487,1.930825 -2.636318,10.577225 1.547133,8.64644 4.459874,23.54227 4.459874,23.54227 l 12.170797,-5.21387 c 0,0 -7.179738,-25.61126 -8.582474,-27.614305 -1.402737,-2.001988 -4.06381,-2.006111 -5.411879,-1.29132"
       style="fill:#a6cada;fill-opacity:1;fill-rule:nonzero;stroke:none;stroke-width:0.103142"
       id="path228110" />
    <path
       d="m 17.512769,176.97972 -0.208344,1.21709 c -0.112417,0.65082 0.329024,1.2738 0.97882,1.3852 0.650829,0.11139 1.272777,-0.32904 1.385203,-0.97986 l 0.208345,-1.21811 -2.364024,-0.40432"
       style="fill:#602358;fill-opacity:1;fill-rule:nonzero;stroke:none;stroke-width:0.103142"
       id="path228112" />
    <path
       d="m 19.876793,177.38404 c -0.06394,0.37132 -0.643608,0.58068 -1.297533,0.46827 -0.65289,-0.1114 -1.130438,-0.5023 -1.066491,-0.87259 0.06292,-0.37131 0.64361,-0.58068 1.297532,-0.46826 0.65289,0.11139 1.129407,0.50332 1.066492,0.87258"
       style="fill:#792871;fill-opacity:1;fill-rule:nonzero;stroke:none;stroke-width:0.103142"
       id="path228114" />
    <path
       d="m 29.659843,118.64446 -1.489375,-0.13215 -10.192526,58.4394 c -0.03921,0.2301 0.256819,0.47344 0.663205,0.54358 0.40535,0.069 0.76738,-0.062 0.806572,-0.29179 l 10.212124,-58.55907"
       style="fill:#913886;fill-opacity:1;fill-rule:nonzero;stroke:none;stroke-width:0.103142"
       id="path228116" />
    <path
       d="m 44.874373,161.31136 -0.209368,1.21811 c -0.11037,0.6498 0.329024,1.27278 0.979853,1.38418 0.649797,0.11139 1.273806,-0.33006 1.384171,-0.97884 l 0.209367,-1.2181 -2.36402,-0.40535"
       style="fill:#602358;fill-opacity:1;fill-rule:nonzero;stroke:none;stroke-width:0.103142"
       id="path228118" />
    <path
       d="m 47.238393,161.71671 c -0.06292,0.37028 -0.644639,0.57965 -1.297529,0.46826 -0.651861,-0.1114 -1.130442,-0.5023 -1.066491,-0.87361 0.06292,-0.37029 0.643607,-0.57966 1.296497,-0.46826 0.652893,0.11256 1.131474,0.50229 1.067523,0.87361"
       style="fill:#792871;fill-opacity:1;fill-rule:nonzero;stroke:none;stroke-width:0.103142"
       id="path228120" />
    <path
       d="m 57.022479,102.9761 -1.491439,-0.13098 -10.192527,58.43841 c -0.03921,0.23097 0.257843,0.47341 0.664237,0.54252 0.40638,0.0702 0.766348,-0.0599 0.805541,-0.29091 l 10.214188,-58.55907"
       style="fill:#913886;fill-opacity:1;fill-rule:nonzero;stroke:none;stroke-width:0.103142"
       id="path228122" />
    <path
       d="m 39.792547,188.67937 0.14028,1.22843 c 0.07529,0.65462 -0.399161,1.25173 -1.054115,1.32713 -0.655983,0.0754 -1.253179,-0.39885 -1.328471,-1.05403 l -0.14028,-1.22843 2.382586,-0.27307"
       style="fill:#602358;fill-opacity:1;fill-rule:nonzero;stroke:none;stroke-width:0.103142"
       id="path228124" />
    <path
       d="m 37.409961,188.95247 c 0.04228,0.37348 0.610601,0.61568 1.268649,0.54028 0.65805,-0.076 1.156226,-0.43918 1.113937,-0.81338 -0.04333,-0.3736 -0.610601,-0.61413 -1.268649,-0.53955 -0.659079,0.0754 -1.157258,0.44043 -1.113937,0.81265"
       style="fill:#792871;fill-opacity:1;fill-rule:nonzero;stroke:none;stroke-width:0.103142"
       id="path228126" />
    <path
       d="m 39.194322,188.67492 0.0041,-8.2e-4 -10.924836,-61.12638 -0.01345,-0.13625 h -1.316098 c 0.0155,0.11461 0.02485,0.22688 0.04125,0.34348 l 10.967125,61.1201 -10e-4,0.001 10e-4,8.2e-4 0.0053,0.0298 0.0082,-0.002 c 0.0495,0.1804 0.330055,0.29612 0.663204,0.25788 0.349654,-0.0404 0.615759,-0.23302 0.593068,-0.43312 l -0.02778,-0.0547"
       style="fill:#913886;fill-opacity:1;fill-rule:nonzero;stroke:none;stroke-width:0.103142"
       id="path228128" />
    <path
       d="m 67.856551,172.82515 0.141304,1.22843 c 0.07426,0.65494 -0.400193,1.25316 -1.055147,1.32742 -0.654952,0.0754 -1.252148,-0.39914 -1.327442,-1.05514 l -0.141304,-1.22635 2.382589,-0.27425"
       style="fill:#602358;fill-opacity:1;fill-rule:nonzero;stroke:none;stroke-width:0.103142"
       id="path228130" />
    <path
       d="m 65.473962,173.09951 c 0.04333,0.37233 0.611634,0.61471 1.268652,0.5384 0.658047,-0.0751 1.156226,-0.43835 1.113937,-0.81276 -0.04333,-0.37234 -0.610604,-0.61369 -1.268651,-0.53841 -0.658048,0.0751 -1.156226,0.43938 -1.113938,0.81277"
       style="fill:#792871;fill-opacity:1;fill-rule:nonzero;stroke:none;stroke-width:0.103142"
       id="path228132" />
    <path
       d="m 67.259355,172.82 h 0.0032 l -10.924839,-61.1263 -0.01228,-0.13625 h -1.317127 c 0.0155,0.11461 0.02485,0.22805 0.04125,0.34345 l 10.967125,61.12011 v 0.001 0.002 l 0.0061,0.0292 0.0082,-0.002 c 0.0495,0.18157 0.330056,0.29603 0.662173,0.25875 0.350686,-0.0403 0.615762,-0.23419 0.5941,-0.4332 l -0.02777,-0.0567"
       style="fill:#913886;fill-opacity:1;fill-rule:nonzero;stroke:none;stroke-width:0.103142"
       id="path228134" />
    <path
       d="m 67.073699,138.35601 -35.516034,20.43972 -3.680122,-2.15671 35.515005,-20.43972 3.681151,2.15671"
       style="fill:#b856b2;fill-opacity:1;fill-rule:nonzero;stroke:none;stroke-width:0.103142"
       id="path228136" />
    <path
       d="m 67.073699,137.00692 -35.516034,20.43969 -0.39091,-0.23302 35.515005,-20.44075 0.391939,0.23419"
       style="fill:#db8dcc;fill-opacity:1;fill-rule:nonzero;stroke:none;stroke-width:0.103142"
       id="path228138" />
    <path
       d="m 27.877543,156.63902 v 0.49508 l 3.680122,2.17527 v -1.86276 l -0.39091,-0.23302 v 1.35632 l -3.289212,-1.93083"
       style="fill:#a941a6;fill-opacity:1;fill-rule:nonzero;stroke:none;stroke-width:0.103142"
       id="path228140" />
    <path
       d="m 67.073699,137.02548 v 1.84314 l -35.516034,20.44075 v -1.84419 l 35.516034,-20.4397"
       style="fill:#c86dbd;fill-opacity:1;fill-rule:nonzero;stroke:none;stroke-width:0.103142"
       id="path228142" />
    <path
       d="m 63.391519,136.16424 -35.462404,20.47478 -9.553044,-52.7996 35.462404,-20.474784 9.553044,52.799604"
       style="fill:#97ddec;fill-opacity:1;fill-rule:nonzero;stroke:none;stroke-width:0.103142"
       id="path228144" />
    <path
       d="M 64.034094,136.61704 28.571693,157.0908 19.018649,104.29221 54.48105,83.817433 64.034094,136.61704"
       style="fill:#c86dbd;fill-opacity:1;fill-rule:nonzero;stroke:none;stroke-width:0.103142"
       id="path228146" />
    <path
       d="m 63.18214,136.02294 -9.200298,-50.851269 -0.249598,0.144431 9.153884,50.589268 -33.784274,19.57437 0.04745,0.26284 34.032852,-19.71976"
       style="fill:#a941a6;fill-opacity:1;fill-rule:nonzero;stroke:none;stroke-width:0.103142"
       id="path228148" />
    <path
       d="M 53.732236,85.316073 19.948991,104.89044 29.101845,155.47971 62.886119,135.90535 53.732236,85.316073"
       style="fill:#dfeef6;fill-opacity:1;fill-rule:nonzero;stroke:none;stroke-width:0.103142"
       id="path228150" />
    <path
       d="m 19.018649,104.29221 -0.642578,-0.45279 9.553044,52.7996 0.642578,0.45178 -9.553044,-52.79859"
       style="fill:#a941a6;fill-opacity:1;fill-rule:nonzero;stroke:none;stroke-width:0.103142"
       id="path228152" />
    <path
       d="M 54.48105,83.817433 53.838475,83.364636 18.376071,103.83942 19.018649,104.29221 54.48105,83.817433"
       style="fill:#db8dcc;fill-opacity:1;fill-rule:nonzero;stroke:none;stroke-width:0.103142"
       id="path228154" />
    <path
       d="m 50.800932,85.883362 -28.120731,16.294418 8.594851,47.4228 28.121762,-16.29442 -8.595882,-47.422798"
       style="fill:#913886;fill-opacity:1;fill-rule:nonzero;stroke:none;stroke-width:0.103142"
       id="path228156" />
    <path
       d="m 52.553319,85.883362 -28.12176,16.294418 8.595883,47.4228 28.121762,-16.29442 -8.595885,-47.422798"
       style="fill:#ffffff;fill-opacity:1;fill-rule:nonzero;stroke:none;stroke-width:0.103142"
       id="path228158" />
    <path
       d="m 56.737805,127.61683 -2.76112,1.59972 0.844736,4.6569 2.76112,-1.59974 -0.844736,-4.65688"
       style="fill:#db8dcc;fill-opacity:1;fill-rule:nonzero;stroke:none;stroke-width:0.103142"
       id="path228160" />
    <path
       d="m 38.775566,137.87228 -2.761123,1.59971 0.844736,4.6569 2.760091,-1.60076 -0.843704,-4.65585"
       style="fill:#face25;fill-opacity:1;fill-rule:nonzero;stroke:none;stroke-width:0.103142"
       id="path228162" />
    <path
       d="m 51.049503,122.24105 -2.762152,1.60076 2.224781,12.35749 2.762153,-1.59975 -2.224782,-12.3585"
       style="fill:#913886;fill-opacity:1;fill-rule:nonzero;stroke:none;stroke-width:0.103142"
       id="path228164" />
    <path
       d="m 42.798117,132.34589 -2.761121,1.59974 1.410988,7.62843 2.762152,-1.59974 -1.412019,-7.62843"
       style="fill:#c86dbd;fill-opacity:1;fill-rule:nonzero;stroke:none;stroke-width:0.103142"
       id="path228166" />
    <path
       d="m 47.380732,127.61683 -2.762152,1.59972 1.740011,9.45817 2.76112,-1.59974 -1.738979,-9.45815"
       style="fill:#f03b6e;fill-opacity:1;fill-rule:nonzero;stroke:none;stroke-width:0.103142"
       id="path228168" />
    <path
       d="M 51.115515,94.275023 27.756867,107.81246 31.885656,130.74615 55.245334,117.20874 51.115515,94.275023"
       style="fill:#db8dcc;fill-opacity:1;fill-rule:nonzero;stroke:none;stroke-width:0.103142"
       id="path228170" />
    <path
       d="m 50.351231,90.30508 -23.35968,13.53744 0.239307,1.52135 23.358645,-13.537433 -0.238254,-1.521357"
       style="fill:#913886;fill-opacity:1;fill-rule:nonzero;stroke:none;stroke-width:0.103142"
       id="path228172" />
    <path
       d="m 58.298349,131.50632 -23.35968,13.53743 0.120662,0.76017 23.358648,-13.53641 -0.119638,-0.76119"
       style="fill:#913886;fill-opacity:1;fill-rule:nonzero;stroke:none;stroke-width:0.103142"
       id="path228174" />
    <path
       d="m 53.720892,116.83535 -4.885855,-9.07446 -0.550779,3.53469 -4.668222,-6.49075 -0.982946,6.17513 -2.037064,-1.7235 -0.578627,3.09426 -5.372686,-6.54335 -2.460975,23.06573 21.537154,-12.03775"
       style="fill:#f03b6e;fill-opacity:1;fill-rule:nonzero;stroke:none;stroke-width:0.103142"
       id="path228176" />
    <path
       d="m 55.295876,117.1819 -4.06381,-7.54486 -0.680738,7.15498 -5.934813,-8.2524 -0.982945,6.17513 -2.037061,-1.72456 -1.407894,7.53662 -5.543902,-6.06888 -1.670906,15.65699 22.322069,-12.93302"
       style="fill:#face25;fill-opacity:1;fill-rule:nonzero;stroke:none;stroke-width:0.103142"
       id="path228178" />
    <path
       d="m 31.724755,114.71475 7.174581,8.9084 1.150037,-8.07915 3.506841,3.28612 0.797289,-3.94313 3.591416,3.52334 0.925188,-5.74914 4.766207,5.482 -21.750658,12.60296 -0.160892,-16.0314"
       style="fill:#913886;fill-opacity:1;fill-rule:nonzero;stroke:none;stroke-width:0.103142"
       id="path228180" />
    <path
       d="m 33.027442,149.60058 h -1.75239 l -8.594851,-47.4228 h 1.751358 l 8.595883,47.4228"
       style="fill:#a6cada;fill-opacity:1;fill-rule:nonzero;stroke:none;stroke-width:0.103142"
       id="path228182" />
    <path
       d="m 22.680201,102.17778 h 1.751358 L 52.553319,85.883362 H 50.800932 L 22.680201,102.17778"
       style="fill:#792871;fill-opacity:1;fill-rule:nonzero;stroke:none;stroke-width:0.103142"
       id="path228184" />
    <path
       d="m 52.553319,85.883362 -28.12176,16.294418 c 0,0 -0.596164,-2.190743 -1.751358,-3.247931 -2.112355,-1.933924 -3.326339,-1.229454 -3.326339,-1.229454 L 47.475621,81.366771 c 0,0 4.229869,-0.156712 5.077698,4.516591"
       style="fill:#dfeef6;fill-opacity:1;fill-rule:nonzero;stroke:none;stroke-width:0.103142"
       id="path228186" />
    <path
       d="m 184.80657,184.9259 10.3988,6.0028 c 1.65751,0.95726 1.44709,2.64343 -0.46619,3.74818 l -12.00783,6.93232 c -1.91329,1.10432 -4.83326,1.22521 -6.49075,0.26898 l -10.39882,-6.00403 c -1.65647,-0.95726 -1.4471,-2.64261 0.46621,-3.7481 l 12.00784,-6.93117 c 1.91328,-1.10546 4.83428,-1.22636 6.49074,-0.26898"
       style="fill:#a6cada;fill-opacity:1;fill-rule:nonzero;stroke:none;stroke-width:0.103142"
       id="path228188" />
    <path
       d="m 193.1642,193.43711 c 0.14853,-0.0175 3.12625,-0.89115 3.12625,-0.89115 l 0.0205,-4.38158 -4.76621,0.79213 1.62038,4.4806"
       style="fill:#a6cada;fill-opacity:1;fill-rule:nonzero;stroke:none;stroke-width:0.103142"
       id="path228190" />
    <path
       d="m 164.73196,194.36343 -0.006,-4.37023 3.23455,-0.0392 -0.0506,3.75014 -3.17679,0.65918"
       style="fill:#a6cada;fill-opacity:1;fill-rule:nonzero;stroke:none;stroke-width:0.103142"
       id="path228192" />
    <path
       d="m 184.79935,180.60312 10.3988,6.00494 c 1.65751,0.95521 1.44812,2.64137 -0.46619,3.74613 l -12.00681,6.93314 c -1.91328,1.1039 -4.83428,1.22635 -6.49075,0.26898 l -10.39882,-6.00363 c -1.65749,-0.95611 -1.44812,-2.64383 0.46519,-3.74736 l 12.00784,-6.93313 c 1.91328,-1.10464 4.83428,-1.22533 6.49074,-0.26928"
       style="fill:#c1dae8;fill-opacity:1;fill-rule:nonzero;stroke:none;stroke-width:0.103142"
       id="path228194" />
    <path
       d="m 183.54926,190.20473 c -1.08505,0.96655 -3.25825,1.32105 -4.85078,0.79411 -1.59354,-0.5282 -2.00508,-1.74014 -0.91799,-2.70751 1.08509,-0.96541 3.25726,-1.32114 4.85081,-0.79212 1.59354,0.5282 2.00406,1.73897 0.91796,2.70552 z m 1.81118,-5.21074 c -3.85545,-1.27805 -9.11159,-0.41897 -11.73967,1.92018 -2.62702,2.33722 -1.63275,5.26957 2.22273,6.54677 3.85545,1.27804 9.1116,0.41864 11.73964,-1.91867 2.62705,-2.33915 1.63378,-5.27024 -2.2227,-6.54828"
       style="fill:#ffffff;fill-opacity:1;fill-rule:nonzero;stroke:none;stroke-width:0.103142"
       id="path228196" />
    <path
       d="m 173.49803,185.65194 -0.5415,0.48186 -0.91693,0.81546 -0.54045,0.48188 1.29237,1.00883 0.98398,-0.87466 0.98295,-0.87474 0.98398,-0.87589 -2.2444,-0.16285"
       style="fill:#ffffff;fill-opacity:1;fill-rule:nonzero;stroke:none;stroke-width:0.103142"
       id="path228198" />
    <path
       d="m 189.70582,191.0246 -0.5415,0.48189 -0.91694,0.81586 -0.54045,0.48148 -2.24439,-0.16402 0.98295,-0.87349 0.98398,-0.87589 0.98296,-0.87548 1.29339,1.00965"
       style="fill:#ffffff;fill-opacity:1;fill-rule:nonzero;stroke:none;stroke-width:0.103142"
       id="path228200" />
    <path
       d="m 187.59244,184.79977 -0.7942,-0.26372 -1.34497,-0.44569 -0.79317,-0.26372 -1.90402,0.84165 1.44297,0.47867 1.44298,0.47817 1.44294,0.47786 0.50747,-1.30299"
       style="fill:#ffffff;fill-opacity:1;fill-rule:nonzero;stroke:none;stroke-width:0.103142"
       id="path228202" />
    <path
       d="m 176.54487,194.62852 -0.7942,-0.26313 -1.34497,-0.44558 -0.79317,-0.26313 0.50641,-1.30456 1.44298,0.4787 1.44399,0.47817 1.44192,0.47867 -1.90296,0.84083"
       style="fill:#ffffff;fill-opacity:1;fill-rule:nonzero;stroke:none;stroke-width:0.103142"
       id="path228204" />
    <path
       d="m 180.52204,183.56733 -0.94375,0.15467 -1.60077,0.26196 -0.94377,0.15379 -0.43216,1.30906 1.71628,-0.28096 1.71526,-0.28039 1.71629,-0.28038 -1.22738,-1.03792"
       style="fill:#ffffff;fill-opacity:1;fill-rule:nonzero;stroke:none;stroke-width:0.103142"
       id="path228206" />
    <path
       d="m 184.17017,194.31712 -0.94375,0.15466 -1.59974,0.26197 -0.94477,0.15349 -1.22741,-1.03666 1.71631,-0.28038 1.71523,-0.28039 1.71631,-0.28097 -0.43218,1.30825"
       style="fill:#ffffff;fill-opacity:1;fill-rule:nonzero;stroke:none;stroke-width:0.103142"
       id="path228208" />
    <path
       d="m 190.56809,188.62531 -0.17835,-0.52694 -0.30322,-0.89209 -0.17835,-0.52694 -2.25986,-0.1187 0.32489,0.95725 0.32491,0.95603 0.32488,0.95737 1.94527,-0.80587"
       style="fill:#ffffff;fill-opacity:1;fill-rule:nonzero;stroke:none;stroke-width:0.103142"
       id="path228210" />
    <path
       d="m 171.29697,191.77559 -0.17952,-0.52613 -0.30219,-0.89208 -0.17952,-0.52613 1.94629,-0.8075 0.32389,0.95697 0.32591,0.95725 0.32389,0.95726 -2.25884,-0.11958"
       style="fill:#ffffff;fill-opacity:1;fill-rule:nonzero;stroke:none;stroke-width:0.103142"
       id="path228212" />
    <path
       d="m 189.26747,205.10757 10.39882,6.00401 c 1.65749,0.95603 1.44707,2.64345 -0.46621,3.74695 l -12.00681,6.93354 c -1.91431,1.10476 -4.83426,1.22525 -6.49075,0.26899 L 170.3027,216.0562 c -1.65649,-0.95518 -1.44709,-2.64178 0.46619,-3.7461 l 12.00681,-6.93354 c 1.91431,-1.10353 4.83531,-1.22595 6.49177,-0.26899"
       style="fill:#ee2566;fill-opacity:1;fill-rule:nonzero;stroke:none;stroke-width:0.103142"
       id="path228214" />
    <path
       d="m 197.6251,213.61876 c 0.14852,-0.0146 3.12624,-0.88876 3.12624,-0.88876 l 0.0205,-4.38274 -4.76619,0.79131 1.61933,4.48019"
       style="fill:#ee2566;fill-opacity:1;fill-rule:nonzero;stroke:none;stroke-width:0.103142"
       id="path228216" />
    <path
       d="m 169.19289,214.54704 -0.006,-4.37096 3.23352,-0.0392 -0.0494,3.75017 -3.17783,0.65988"
       style="fill:#ee2566;fill-opacity:1;fill-rule:nonzero;stroke:none;stroke-width:0.103142"
       id="path228218" />
    <path
       d="m 189.26127,200.78599 10.39882,6.00404 c 1.65647,0.95696 1.4471,2.64342 -0.46724,3.74818 l -12.00678,6.9319 c -1.91331,1.10476 -4.83428,1.22563 -6.49077,0.2684 l -10.3988,-6.00277 c -1.65748,-0.95738 -1.44812,-2.64346 0.46517,-3.74821 l 12.00885,-6.93229 c 1.91226,-1.10476 4.83326,-1.22524 6.49075,-0.26927"
       style="fill:#f03b6e;fill-opacity:1;fill-rule:nonzero;stroke:none;stroke-width:0.103142"
       id="path228220" />
    <path
       d="m 190.85791,212.82386 -0.44659,0.25787 c -1.28103,0.15145 -1.67296,-0.1804 -3.68322,0.97985 -0.67971,0.39289 -2.21241,0.82514 -4.11639,-0.27366 -0.52604,-0.30541 -0.67456,-0.39081 -1.32334,-0.91056 l 1.33158,-0.76952 c 0.29705,0.17922 0.62401,0.49516 1.01181,0.71879 0.46312,0.26635 1.01185,0.40123 1.69775,0.0117 1.77815,-1.01491 2.5734,-0.90001 3.20153,-0.89527 l 0.4466,-0.25846 c -0.0526,-0.69219 -0.35585,-0.65518 1.68845,-1.84738 0.69415,-0.40526 0.36924,-0.77874 -0.13829,-1.07166 -0.42599,-0.24443 -0.98193,-0.4364 -1.17171,-0.54551 l 1.34292,-0.77482 c 0.82203,0.32802 1.00769,0.38278 1.54299,0.6922 1.58942,0.91705 1.65132,1.78724 0.71067,2.33 -2.05564,1.18735 -1.74002,1.47501 -2.09484,2.35689"
       style="fill:#ffffff;fill-opacity:1;fill-rule:nonzero;stroke:none;stroke-width:0.103142"
       id="path228222" />
    <path
       d="m 185.72041,205.99068 c -0.50951,-0.29406 -1.15417,-0.4818 -1.85346,-0.0798 -2.06388,1.18209 -1.99892,1.00561 -3.19846,0.97705 l -0.4466,0.25787 c 0.009,0.36172 0.20524,0.82183 -1.55127,1.84726 -0.68073,0.394 -0.44867,0.71067 0.0175,0.97781 0.38781,0.22483 0.93653,0.41461 1.24595,0.58583 l -1.33053,0.76914 c -0.90249,-0.37429 -1.05204,-0.4597 -1.57808,-0.76388 -1.85656,-1.07298 -1.23565,-1.9372 -0.47548,-2.37558 l 0.0292,-0.0146 c 1.99991,-1.16519 1.40683,-1.37467 1.66985,-2.11122 l 0.44765,-0.25846 c 1.5265,-0.20436 2.0257,-0.0205 4.07926,-1.20913 0.94273,-0.54232 2.44862,-0.50726 4.03906,0.41049 0.53738,0.30945 0.63021,0.41587 1.19955,0.89127 l -1.3429,0.77481 c -0.19092,-0.11051 -0.52293,-0.43157 -0.94994,-0.67774"
       style="fill:#ffffff;fill-opacity:1;fill-rule:nonzero;stroke:none;stroke-width:0.103142"
       id="path228224" />
    <path
       d="m 62.344623,204.13412 v 4.04637 l -1.808084,-1.75867 z"
       style="fill:#d82056;fill-opacity:1;fill-rule:nonzero;stroke:none;stroke-width:0.103142"
       id="path228226" />
    <path
       d="m 53.571335,219.33399 c -2.294919,1.79045 -6.68156,2.22077 -9.796459,0.96129 -3.115931,-1.2603 -3.782232,-3.73365 -1.488346,-5.52534 2.294918,-1.79136 6.681563,-2.22159 9.796462,-0.96138 3.11696,1.26071 3.782229,3.73488 1.488343,5.52543 z m 4.287626,-10.17891 c -7.538674,-3.04993 -18.153052,-2.0085 -23.704173,2.32556 -5.552153,4.33433 -3.94107,10.31947 3.598637,13.36941 7.539704,3.04991 18.153053,2.00807 23.704173,-2.32596 5.552153,-4.33395 3.942102,-10.3191 -3.598637,-13.36901"
       style="fill:#e52559;fill-opacity:1;fill-rule:nonzero;stroke:none;stroke-width:0.103142"
       id="path228228" />
    <path
       d="m 34.071242,208.94352 -1.143849,0.89209 -1.937012,1.51332 -1.142818,0.89197 2.452727,2.18249 2.077285,-1.62129 2.078318,-1.62243 2.07832,-1.62132 -4.462971,-0.61483"
       style="fill:#e52559;fill-opacity:1;fill-rule:nonzero;stroke:none;stroke-width:0.103142"
       id="path228230" />
    <path
       d="m 65.765855,221.76424 -1.142818,0.89206 -1.938043,1.5132 -1.14385,0.89208 -4.462968,-0.61483 2.078317,-1.62251 2.078318,-1.62121 2.077288,-1.62252 2.453756,2.18373"
       style="fill:#e52559;fill-opacity:1;fill-rule:nonzero;stroke:none;stroke-width:0.103142"
       id="path228232" />
    <path
       d="m 62.344623,209.05194 -1.552294,-0.62732 -2.63116,-1.06444 -1.553323,-0.62813 -3.911157,1.43596 2.823004,1.14177 2.820945,1.1418 2.821975,1.14066 1.18201,-2.5403"
       style="fill:#e52559;fill-opacity:1;fill-rule:nonzero;stroke:none;stroke-width:0.103142"
       id="path228234" />
    <path
       d="m 39.00454,227.27192 -1.55229,-0.62814 -2.631164,-1.0633 -1.552291,-0.62927 1.182011,-2.53831 2.820945,1.14066 2.821974,1.14095 2.821975,1.14189 -3.91116,1.43552"
       style="fill:#e52559;fill-opacity:1;fill-rule:nonzero;stroke:none;stroke-width:0.103142"
       id="path228236" />
    <path
       d="m 48.373993,205.68331 -1.906073,0.18566 -3.231447,0.31749 -1.90504,0.1877 -1.030392,2.55805 3.46352,-0.33965 3.46455,-0.34006 3.464552,-0.33965 -2.31967,-2.22962"
       style="fill:#e52559;fill-opacity:1;fill-rule:nonzero;stroke:none;stroke-width:0.103142"
       id="path228238" />
    <path
       d="m 54.281986,227.63086 -1.90607,0.1877 -3.230418,0.31676 -1.907105,0.18653 -2.31967,-2.23004 3.465585,-0.33924 3.463517,-0.34046 3.464553,-0.33924 -1.030392,2.55802"
       style="fill:#e52559;fill-opacity:1;fill-rule:nonzero;stroke:none;stroke-width:0.103142"
       id="path228240" />
    <path
       d="m 67.79879,217.08053 v -4.91895 l -5.569686,0.4166 0.526027,1.95485 0.526024,1.95319 0.526027,1.95445 3.991608,-1.36014"
       style="fill:#e52559;fill-opacity:1;fill-rule:nonzero;stroke:none;stroke-width:0.103142"
       id="path228242" />
    <path
       d="m 28.883183,220.89762 -0.288805,-1.07452 -0.490957,-1.82274 -0.289828,-1.07578 0.780788,-2.02129 3.210821,0.66114 0.526026,1.95322 0.527057,1.95445 0.526026,1.95372 -4.501131,-0.5282"
       style="fill:#e52559;fill-opacity:1;fill-rule:nonzero;stroke:none;stroke-width:0.103142"
       id="path228244" />
    <path
       d="m 29.847563,207.32305 v 4.6838 l 1.898851,-0.39204 0.942722,-3.02216 -2.841573,-1.2696"
       style="fill:#ee2566;fill-opacity:1;fill-rule:nonzero;stroke:none;stroke-width:0.103142"
       id="path228246" />
    <path
       d="m 64.58797,213.25706 v 4.9177 l 3.21082,-1.09423 v -4.91895 l -3.21082,1.09548"
       style="fill:#d82056;fill-opacity:1;fill-rule:nonzero;stroke:none;stroke-width:0.103142"
       id="path228248" />
    <path
       d="m 53.571335,214.41617 c -2.294919,1.79043 -6.68156,2.22074 -9.796459,0.96044 -3.115931,-1.25945 -3.782232,-3.73405 -1.488346,-5.52533 2.294918,-1.79168 6.681563,-2.22074 9.796462,-0.96129 3.11696,1.26144 3.782229,3.73491 1.488343,5.52618 z m 4.287626,-10.18004 c -7.538674,-3.05002 -18.153052,-2.0081 -23.704173,2.32471 -5.552153,4.33517 -3.94107,10.32064 3.598637,13.37067 7.539704,3.0495 18.153053,2.0088 23.704173,-2.32597 5.552153,-4.33406 3.942102,-10.3195 -3.598637,-13.36941"
       style="fill:#f03b6e;fill-opacity:1;fill-rule:nonzero;stroke:none;stroke-width:0.103142"
       id="path228250" />
    <path
       d="m 34.071242,204.02457 -1.143849,0.89323 -1.937012,1.51206 -1.142818,0.89319 2.452727,2.18262 2.077285,-1.62129 2.078318,-1.62369 2.07832,-1.62129 -4.462971,-0.61483"
       style="fill:#f03b6e;fill-opacity:1;fill-rule:nonzero;stroke:none;stroke-width:0.103142"
       id="path228252" />
    <path
       d="m 65.765855,216.84526 -1.142818,0.892 -1.938043,1.51328 -1.14385,0.89197 -4.462968,-0.61357 2.078317,-1.62328 2.078318,-1.6217 2.077288,-1.62117 2.453756,2.18247"
       style="fill:#f03b6e;fill-opacity:1;fill-rule:nonzero;stroke:none;stroke-width:0.103142"
       id="path228254" />
    <path
       d="m 62.344623,204.13412 -1.552294,-0.62804 -2.63116,-1.06453 -1.553323,-0.62731 -3.911157,1.4347 2.823004,1.14302 2.820945,1.14066 2.821975,1.14178 1.18201,-2.54028"
       style="fill:#f03b6e;fill-opacity:1;fill-rule:nonzero;stroke:none;stroke-width:0.103142"
       id="path228256" />
    <path
       d="m 39.00454,222.3541 -1.55229,-0.62813 -2.631164,-1.06444 -1.552291,-0.62813 1.182011,-2.53946 2.820945,1.14096 2.821974,1.14188 2.821975,1.14055 -3.91116,1.43677"
       style="fill:#f03b6e;fill-opacity:1;fill-rule:nonzero;stroke:none;stroke-width:0.103142"
       id="path228258" />
    <path
       d="m 48.373993,200.76436 -1.906073,0.18653 -3.231447,0.31787 -1.90504,0.18566 -1.030392,2.55998 3.46352,-0.33965 3.46455,-0.3412 3.464552,-0.33921 -2.31967,-2.23004"
       style="fill:#f03b6e;fill-opacity:1;fill-rule:nonzero;stroke:none;stroke-width:0.103142"
       id="path228260" />
    <path
       d="m 54.281986,222.71305 -1.90607,0.18653 -3.230418,0.31667 -1.907105,0.18712 -2.31967,-2.23004 3.465585,-0.3405 3.463517,-0.33924 3.464553,-0.33965 -1.030392,2.55919"
       style="fill:#f03b6e;fill-opacity:1;fill-rule:nonzero;stroke:none;stroke-width:0.103142"
       id="path228262" />
    <path
       d="m 67.79879,212.16158 -0.288805,-1.07579 -0.490957,-1.82273 -0.289828,-1.07453 -4.500099,-0.5282 0.526027,1.95363 0.526024,1.95454 0.526027,1.95363 3.991608,-1.36055"
       style="fill:#f03b6e;fill-opacity:1;fill-rule:nonzero;stroke:none;stroke-width:0.103142"
       id="path228264" />
    <path
       d="m 28.883183,215.97899 -0.288805,-1.0757 -0.490957,-1.82074 -0.289828,-1.0757 3.991609,-1.3626 0.526026,1.95486 0.527057,1.95319 0.526026,1.95445 -4.501131,-0.52776"
       style="fill:#f03b6e;fill-opacity:1;fill-rule:nonzero;stroke:none;stroke-width:0.103142"
       id="path228266" />
    <path
       d="m 47.238393,223.40328 v 4.91854 l 7.043593,-0.69096 v -4.91781 l -7.043593,0.69023"
       style="fill:#ee2566;fill-opacity:1;fill-rule:nonzero;stroke:none;stroke-width:0.103142"
       id="path228268" />
    <path
       d="m 61.541144,220.14251 v 4.91907 l 4.224711,-3.29734 v -4.91898 l -4.224711,3.29725"
       style="fill:#ee2566;fill-opacity:1;fill-rule:nonzero;stroke:none;stroke-width:0.103142"
       id="path228270" />
    <path
       d="m 39.00454,222.3541 v 4.91782 l -5.735745,-2.32071 v -4.91781 l 5.735745,2.3207"
       style="fill:#ee2566;fill-opacity:1;fill-rule:nonzero;stroke:none;stroke-width:0.103142"
       id="path228272" />
    <path
       d="m 28.883183,215.97899 v 4.91863 l -1.069587,-3.97304 v -4.91773 l 1.069587,3.97214"
       style="fill:#ee2566;fill-opacity:1;fill-rule:nonzero;stroke:none;stroke-width:0.103142"
       id="path228274" />
    <path
       d="m 42.149352,226.11757 v -4.91784 l -3.144812,1.15437 v 4.91782 l 3.144812,-1.15435"
       style="fill:#d82056;fill-opacity:1;fill-rule:nonzero;stroke:none;stroke-width:0.103142"
       id="path228276" />
    <path
       d="m 32.503479,216.4036 v 4.91907 l -3.620296,-0.42505 v -4.91863 l 3.620296,0.42461"
       style="fill:#d82056;fill-opacity:1;fill-rule:nonzero;stroke:none;stroke-width:0.103142"
       id="path228278" />
    <path
       d="m 45.373581,221.60952 v 4.91866 l 1.864812,1.79364 v -4.91854 l -1.864812,-1.79376"
       style="fill:#d82056;fill-opacity:1;fill-rule:nonzero;stroke:none;stroke-width:0.103142"
       id="path228280" />
    <path
       d="m 54.281986,222.71305 0.829263,-2.05956 v 4.9198 l -0.829263,2.05757 v -4.91781"
       style="fill:#d82056;fill-opacity:1;fill-rule:nonzero;stroke:none;stroke-width:0.103142"
       id="path228282" />
    <path
       d="m 57.952821,219.64858 v 4.91781 l 3.588323,0.49519 v -4.91907 l -3.588323,-0.49393"
       style="fill:#d82056;fill-opacity:1;fill-rule:nonzero;stroke:none;stroke-width:0.103142"
       id="path228284" />
    <path
       d="m 148.62525,220.28279 10.39882,6.00404 c 1.65749,0.95725 1.4471,2.64383 -0.46516,3.74736 l -12.00886,6.93313 c -1.91226,1.10464 -4.83326,1.22513 -6.49078,0.26898 l -10.39879,-6.00403 c -1.65646,-0.95612 -1.4471,-2.6422 0.46619,-3.74695 l 12.00783,-6.93314 c 1.91331,-1.10393 4.83428,-1.22562 6.49075,-0.26956"
       style="fill:#f5af0c;fill-opacity:1;fill-rule:nonzero;stroke:none;stroke-width:0.103142"
       id="path228286" />
    <path
       d="m 156.98393,228.79523 c 0.14852,-0.0175 3.12519,-0.89001 3.12519,-0.89001 l 0.0205,-4.38148 -4.7652,0.79007 1.62039,4.48142"
       style="fill:#f5af0c;fill-opacity:1;fill-rule:nonzero;stroke:none;stroke-width:0.103142"
       id="path228288" />
    <path
       d="m 128.55066,229.72155 -0.006,-4.37034 3.23556,-0.0389 -0.0506,3.75014 -3.17782,0.65918"
       style="fill:#f5af0c;fill-opacity:1;fill-rule:nonzero;stroke:none;stroke-width:0.103142"
       id="path228290" />
    <path
       d="m 148.61805,215.96247 10.3988,6.00278 c 1.65749,0.95737 1.44812,2.64263 -0.46516,3.74821 l -12.00784,6.93228 c -1.91328,1.10435 -4.83428,1.22524 -6.49074,0.26898 l -10.39883,-6.00391 c -1.65748,-0.95738 -1.44706,-2.64343 0.46622,-3.74704 l 12.00678,-6.93346 c 1.91433,-1.10476 4.83428,-1.22521 6.49077,-0.2681"
       style="fill:#face25;fill-opacity:1;fill-rule:nonzero;stroke:none;stroke-width:0.103142"
       id="path228292" />
    <path
       d="m 145.13184,227.98136 -0.11344,-1.15914 4.34745,0.1342 -0.23214,-2.51048 1.99684,0.0728 0.31664,3.65228 -6.31538,-0.18975"
       style="fill:#ffffff;fill-opacity:1;fill-rule:nonzero;stroke:none;stroke-width:0.103142"
       id="path228294" />
    <path
       d="m 139.94686,226.50754 -1.86171,-1.07453 10.49577,-3.31418 1.86171,1.07485 -10.49577,3.31386"
       style="fill:#ffffff;fill-opacity:1;fill-rule:nonzero;stroke:none;stroke-width:0.103142"
       id="path228296" />
    <path
       d="m 139.68694,221.36816 0.23214,2.50926 -2.00818,-0.0649 -0.30635,-3.65868 6.30716,0.19618 0.12368,1.15191 -4.34848,-0.1339"
       style="fill:#ffffff;fill-opacity:1;fill-rule:nonzero;stroke:none;stroke-width:0.103142"
       id="path228298" />
    <path
       d="m 75.502491,193.14503 v 3.42142 l -1.528567,-1.48753 z"
       style="fill:#b856b2;fill-opacity:1;fill-rule:nonzero;stroke:none;stroke-width:0.103142"
       id="path228300" />
    <path
       d="m 68.083464,205.99799 c -1.940107,1.51402 -5.648074,1.87905 -8.283363,0.81338 -2.635287,-1.06721 -3.198445,-3.15791 -1.258337,-4.67315 1.940107,-1.51414 5.649106,-1.87835 8.283363,-0.81268 2.635286,1.06526 3.198445,3.15791 1.258337,4.67245 z m 3.626483,-8.60755 c -6.376259,-2.57854 -15.349644,-1.69865 -20.044682,1.96612 -4.696073,3.66558 -3.332529,8.72678 3.042698,11.30532 6.37523,2.5794 15.349644,1.69865 20.044685,-1.96567 4.695041,-3.666 3.332529,-8.72719 -3.042701,-11.30577"
       style="fill:#b856b2;fill-opacity:1;fill-rule:nonzero;stroke:none;stroke-width:0.103142"
       id="path228302" />
    <path
       d="m 51.594096,197.21192 -0.966444,0.75426 -1.638933,1.28001 -0.966441,0.75376 2.075221,1.84616 1.756516,-1.37149 1.757544,-1.3719 1.756516,-1.3719 -3.773979,-0.5189"
       style="fill:#b856b2;fill-opacity:1;fill-rule:nonzero;stroke:none;stroke-width:0.103142"
       id="path228304" />
    <path
       d="m 78.395635,208.05351 -0.966445,0.75389 -1.638932,1.27801 -0.967473,0.75584 -3.772947,-0.51975 1.756513,-1.37189 1.757547,-1.3719 1.757545,-1.37064 2.074192,1.84644"
       style="fill:#b856b2;fill-opacity:1;fill-rule:nonzero;stroke:none;stroke-width:0.103142"
       id="path228306" />
    <path
       d="m 75.502491,197.30382 -1.313002,-0.53107 -2.224778,-0.89922 -1.313005,-0.53229 -3.307773,1.2148 2.386714,0.9653 2.385682,0.96459 2.386715,0.96656 0.999447,-2.14867"
       style="fill:#b856b2;fill-opacity:1;fill-rule:nonzero;stroke:none;stroke-width:0.103142"
       id="path228308" />
    <path
       d="m 55.766203,212.7103 -1.313001,-0.53028 -2.224782,-0.90041 -1.311969,-0.5311 0.998418,-2.14741 2.386714,0.96459 2.385683,0.9653 2.386714,0.96532 -3.307777,1.21399"
       style="fill:#b856b2;fill-opacity:1;fill-rule:nonzero;stroke:none;stroke-width:0.103142"
       id="path228310" />
    <path
       d="m 63.688569,194.45409 -1.612116,0.15789 -2.73121,0.26781 -1.612113,0.15788 -0.871555,2.16393 2.929243,-0.28682 2.930275,-0.28681 2.929243,-0.28857 -1.961767,-1.88554"
       style="fill:#b856b2;fill-opacity:1;fill-rule:nonzero;stroke:none;stroke-width:0.103142"
       id="path228312" />
    <path
       d="m 68.684783,213.01363 -1.612116,0.15876 -2.73224,0.26723 -1.611083,0.15876 -1.962799,-1.88554 2.930275,-0.28769 2.929243,-0.2877 2.930272,-0.28681 -0.871552,2.16311"
       style="fill:#b856b2;fill-opacity:1;fill-rule:nonzero;stroke:none;stroke-width:0.103142"
       id="path228314" />
    <path
       d="m 80.113987,204.09182 v -4.1587 l -4.708449,0.35254 0.443513,1.65225 0.445575,1.65234 0.444543,1.65263 3.374818,-1.15106"
       style="fill:#b856b2;fill-opacity:1;fill-rule:nonzero;stroke:none;stroke-width:0.103142"
       id="path228316" />
    <path
       d="m 47.207452,207.31987 -0.244452,-0.90849 -0.414634,-1.54115 -0.244452,-0.90931 0.65908,-1.70915 2.715738,0.55808 0.444543,1.65225 0.445575,1.65235 0.44351,1.65222 -3.80492,-0.4468"
       style="fill:#b856b2;fill-opacity:1;fill-rule:nonzero;stroke:none;stroke-width:0.103142"
       id="path228318" />
    <path
       d="m 48.022278,195.84125 v 3.96088 l 1.605926,-0.33234 0.79729,-2.55483 -2.403216,-1.07371"
       style="fill:#b856b2;fill-opacity:1;fill-rule:nonzero;stroke:none;stroke-width:0.103142"
       id="path228320" />
    <path
       d="m 77.399281,200.85821 v 4.15993 l 2.714706,-0.92632 v -4.1587 l -2.714706,0.92509"
       style="fill:#a941a6;fill-opacity:1;fill-rule:nonzero;stroke:none;stroke-width:0.103142"
       id="path228322" />
    <path
       d="m 68.083464,201.83921 c -1.940107,1.5141 -5.648074,1.8779 -8.283363,0.8115 -2.635287,-1.06534 -3.198445,-3.15595 -1.258337,-4.67119 1.940107,-1.5154 5.649106,-1.87835 8.283363,-0.81268 2.635286,1.06526 3.198445,3.15709 1.258337,4.67237 z m 3.626483,-8.60755 c -6.376259,-2.5794 -15.349644,-1.69857 -20.044682,1.9662 -4.696073,3.66558 -3.332529,8.72678 3.042698,11.30532 6.37523,2.57981 15.349644,1.69784 20.044685,-1.96693 4.695041,-3.66474 3.332529,-8.72605 -3.042701,-11.30459"
       style="fill:#db8dcc;fill-opacity:1;fill-rule:nonzero;stroke:none;stroke-width:0.103142"
       id="path228324" />
    <path
       d="m 51.594096,193.0524 -0.966444,0.755 -1.638933,1.27804 -0.966441,0.75581 2.075221,1.84534 1.756516,-1.37067 1.757544,-1.3719 1.756516,-1.37189 -3.773979,-0.51973"
       style="fill:#db8dcc;fill-opacity:1;fill-rule:nonzero;stroke:none;stroke-width:0.103142"
       id="path228326" />
    <path
       d="m 78.395635,203.89286 -0.966445,0.75584 -1.638932,1.27793 -0.967473,0.75581 -3.772947,-0.51972 1.756513,-1.37181 1.757547,-1.37272 1.757545,-1.37064 2.074192,1.84531"
       style="fill:#db8dcc;fill-opacity:1;fill-rule:nonzero;stroke:none;stroke-width:0.103142"
       id="path228328" />
    <path
       d="m 75.502491,193.14503 -1.313002,-0.53098 -2.224778,-0.90045 -1.313005,-0.53109 -3.307773,1.21472 2.386714,0.96459 2.385682,0.9653 2.386715,0.96541 0.999447,-2.1475"
       style="fill:#db8dcc;fill-opacity:1;fill-rule:nonzero;stroke:none;stroke-width:0.103142"
       id="path228330" />
    <path
       d="m 55.766203,208.5516 -1.313001,-0.53109 -2.224782,-0.90042 -1.311969,-0.53028 0.998418,-2.14741 2.386714,0.96448 2.385683,0.96541 2.386714,0.96407 -3.307777,1.21524"
       style="fill:#db8dcc;fill-opacity:1;fill-rule:nonzero;stroke:none;stroke-width:0.103142"
       id="path228332" />
    <path
       d="m 63.688569,190.2954 -1.612116,0.15788 -2.73121,0.26781 -1.612113,0.15788 -0.871555,2.16393 2.929243,-0.28681 2.930275,-0.2877 2.929243,-0.28769 -1.961767,-1.88554"
       style="fill:#db8dcc;fill-opacity:1;fill-rule:nonzero;stroke:none;stroke-width:0.103142"
       id="path228334" />
    <path
       d="m 68.684783,208.85494 -1.612116,0.15758 -2.73224,0.2684 -1.611083,0.15788 -1.962799,-1.88553 2.930275,-0.2877 2.929243,-0.28681 2.930272,-0.2877 -0.871552,2.16402"
       style="fill:#db8dcc;fill-opacity:1;fill-rule:nonzero;stroke:none;stroke-width:0.103142"
       id="path228336" />
    <path
       d="m 80.113987,199.93312 -0.244452,-0.90972 -0.413601,-1.53992 -0.245476,-0.90972 -3.804923,-0.44762 0.443513,1.65307 0.445575,1.65149 0.444543,1.65348 3.374818,-1.15106"
       style="fill:#db8dcc;fill-opacity:1;fill-rule:nonzero;stroke:none;stroke-width:0.103142"
       id="path228338" />
    <path
       d="m 47.207452,203.16035 -0.244452,-0.90858 -0.414634,-1.54106 -0.244452,-0.90858 3.374818,-1.15221 0.444543,1.65349 0.445575,1.65222 0.44351,1.65234 -3.80492,-0.44762"
       style="fill:#db8dcc;fill-opacity:1;fill-rule:nonzero;stroke:none;stroke-width:0.103142"
       id="path228340" />
    <path
       d="m 62.729344,209.43871 v 4.15952 l 5.955439,-0.5846 v -4.15869 l -5.955439,0.58377"
       style="fill:#c86dbd;fill-opacity:1;fill-rule:nonzero;stroke:none;stroke-width:0.103142"
       id="path228342" />
    <path
       d="m 74.822785,206.68244 v 4.15881 l 3.57285,-2.78774 v -4.16065 l -3.57285,2.78958"
       style="fill:#c86dbd;fill-opacity:1;fill-rule:nonzero;stroke:none;stroke-width:0.103142"
       id="path228344" />
    <path
       d="m 55.766203,208.5516 v 4.1587 l -4.849752,-1.96179 v -4.1587 l 4.849752,1.96179"
       style="fill:#c86dbd;fill-opacity:1;fill-rule:nonzero;stroke:none;stroke-width:0.103142"
       id="path228346" />
    <path
       d="m 47.207452,203.16035 v 4.15952 l -0.903526,-3.35895 v -4.15879 l 0.903526,3.35822"
       style="fill:#c86dbd;fill-opacity:1;fill-rule:nonzero;stroke:none;stroke-width:0.103142"
       id="path228348" />
    <path
       d="m 58.425213,211.73445 v -4.1587 l -2.65901,0.97585 v 4.1587 l 2.65901,-0.97585"
       style="fill:#a941a6;fill-opacity:1;fill-rule:nonzero;stroke:none;stroke-width:0.103142"
       id="path228350" />
    <path
       d="m 50.269747,203.52011 v 4.15879 l -3.062295,-0.35903 v -4.15952 l 3.062295,0.35976"
       style="fill:#a941a6;fill-opacity:1;fill-rule:nonzero;stroke:none;stroke-width:0.103142"
       id="path228352" />
    <path
       d="m 61.150234,207.92262 v 4.15829 l 1.57911,1.51732 v -4.15952 l -1.57911,-1.51609"
       style="fill:#a941a6;fill-opacity:1;fill-rule:nonzero;stroke:none;stroke-width:0.103142"
       id="path228354" />
    <path
       d="m 68.684783,208.85494 0.701368,-1.74011 v 4.15869 l -0.701368,1.74011 v -4.15869"
       style="fill:#a941a6;fill-opacity:1;fill-rule:nonzero;stroke:none;stroke-width:0.103142"
       id="path228356" />
    <path
       d="m 71.789367,206.26391 v 4.15951 l 3.033418,0.41783 v -4.15881 l -3.033418,-0.41853"
       style="fill:#a941a6;fill-opacity:1;fill-rule:nonzero;stroke:none;stroke-width:0.103142"
       id="path228358" />
  </g>
</svg>
